<?xml version="1.0" standalone="no"?>
<!DOCTYPE svg PUBLIC "-//W3C//DTD SVG 1.1//EN" "http://www.w3.org/Graphics/SVG/1.1/DTD/svg11.dtd" >
<svg xmlns="http://www.w3.org/2000/svg" xmlns:xlink="http://www.w3.org/1999/xlink" version="1.1">
<metadata>
Created by FontForge 20200427 at Tue Aug 21 00:27:30 2012
 By www
Copyright (c) 2006 Linotype GmbH, www.linotype.com. All rights reserved. This font software may not be reproduced, modified, disclosed or transferred without the express written approval of Linotype GmbH.
</metadata>
<defs>
<font id="ColumnaW01-Solid" horiz-adv-x="529" >
  <font-face 
    font-family="ColumnaW01-Solid"
    font-weight="400"
    font-stretch="normal"
    units-per-em="1000"
    panose-1="2 14 5 4 4 2 3 6 4 4"
    ascent="800"
    descent="-200"
    x-height="667"
    cap-height="667"
    bbox="-40 -219 1300 866"
    underline-thickness="50"
    underline-position="-150"
    unicode-range="U+0002-E305"
  />
<missing-glyph horiz-adv-x="250" 
 />
    <glyph glyph-name=".notdef" horiz-adv-x="250" 
 />
    <glyph glyph-name=".null" horiz-adv-x="0" 
 />
    <glyph glyph-name="uni000D" unicode="&#xd;" horiz-adv-x="0" 
 />
    <glyph glyph-name="glyph232" horiz-adv-x="0" 
 />
    <glyph glyph-name="glyph232" horiz-adv-x="0" 
 />
    <glyph glyph-name="uni0002" horiz-adv-x="0" 
 />
    <glyph glyph-name="uni0009" unicode="&#x9;" horiz-adv-x="0" 
 />
    <glyph glyph-name="uni000A" unicode="&#xa;" horiz-adv-x="0" 
 />
    <glyph glyph-name="space" unicode=" " horiz-adv-x="250" 
 />
    <glyph glyph-name="exclam" unicode="!" horiz-adv-x="185" 
d="M94 97q22 0 36 -14.5t14 -37.5t-15 -37.5t-37 -14.5t-37 15t-15 36q0 23 15.5 38t38.5 15zM93 143q-13 59 -24 121t-18.5 121t-12 112t-4.5 93q0 45 13 64t45 19t45.5 -19t13.5 -64q0 -40 -4.5 -93t-12 -112t-18 -121.5t-23.5 -120.5z" />
    <glyph glyph-name="quotedbl" unicode="&#x22;" horiz-adv-x="312" 
d="M53 407q-2 66 -5.5 129.5t-10.5 130.5l17 -1q11 -1 19 -1h13h11t22 1l18 1q-7 -67 -10.5 -130.5t-5.5 -129.5h-68zM190 407q-1 66 -5 129.5t-11 130.5l17 -1q11 -1 19 -1h13h11.5t21.5 1l18 1q-7 -67 -10.5 -130.5t-5.5 -129.5h-68z" />
    <glyph glyph-name="numbersign" unicode="#" 
d="M18 0q17 7 27.5 13.5t17.5 16.5t11 24t7 36l18 113q-36 1 -55 -7t-35 -30l24 150q8 -20 25.5 -28.5t52.5 -10.5l24 153q-36 1 -55 -7t-35 -30l24 150q8 -20 25.5 -28.5t52.5 -10.5l11 73q2 12 3 22.5t1 18.5q0 17 -8.5 27.5t-29.5 21.5h177q-17 -7 -28 -13.5t-17.5 -16.5
t-10.5 -24t-7 -36l-11 -73h126l12 73q2 13 3 24t1 18q0 17 -8.5 27t-30.5 21h177q-17 -7 -27.5 -13.5t-17 -16.5t-10.5 -24t-7 -36l-12 -73q35 2 55.5 10.5t34.5 28.5l-23 -150q-9 22 -26 30t-53 7l-24 -153q35 2 55.5 10.5t34.5 28.5l-23 -150q-9 22 -26 30t-53 7l-18 -113
q-2 -13 -3 -24t-1 -18q0 -17 8.5 -27t30.5 -21h-177q16 7 27 13.5t17.5 16.5t10.5 24t7 36l18 113h-126l-18 -113q-2 -12 -3 -22.5t-1 -18.5q0 -17 8.5 -27.5t29.5 -21.5h-177zM317 277l24 153h-126l-24 -153h126z" />
    <glyph glyph-name="dollar" unicode="$" horiz-adv-x="469" 
d="M217 -14h-14q-18 0 -32 1t-29.5 4t-36.5 9t-53 17v137q35 -42 79 -66t86 -22v249q-44 27 -73 50t-47 46t-25.5 47.5t-7.5 54.5q0 67 41 109.5t118 55.5v77h47v-77q11 -1 17 -1.5t11 -1.5t8.5 -1.5t8.5 -2t13 -3.5t23 -6q12 -3 18 -3q15 0 30 19l8 -162q-20 42 -56.5 67.5
t-80.5 27.5v-200q38 -25 57.5 -40t36.5 -33q59 -65 59 -142q0 -54 -27 -102t-72 -75q-13 -8 -25.5 -13t-34.5 -12v-88h-47v80zM223 608q-29 -10 -46.5 -32t-17.5 -49q0 -25 13.5 -43t50.5 -42v166zM264 79q62 35 62 98q0 31 -14 55t-48 50v-203z" />
    <glyph glyph-name="percent" unicode="%" horiz-adv-x="931" 
d="M215 684q37 0 68 -17t54 -46.5t36 -70.5t13 -89q0 -50 -13 -91.5t-36 -71t-55 -46t-71 -16.5q-38 0 -70 16.5t-55 46t-36 70t-13 88.5q0 50 13 92t36.5 72t56.5 46.5t72 16.5zM210 634q-20 0 -37 -13.5t-29 -37t-19 -56t-7 -69.5q0 -35 7 -66t20 -54t29.5 -36t36.5 -13
t37.5 13.5t30 36.5t20 55t7.5 69t-7.5 68t-20 54t-30 36t-38.5 13zM722 435q37 0 68 -17t54 -46.5t36 -70.5t13 -89q0 -50 -13 -91.5t-36 -71t-55 -46t-71 -16.5q-38 0 -70 16.5t-55 46t-36 70t-13 88.5q0 50 13 92t36.5 72t56.5 46.5t72 16.5zM716 385q-20 0 -37 -13.5
t-29 -37t-19 -56t-7 -69.5q0 -35 7 -66t20 -54t29.5 -36t36.5 -13t37.5 13.5t30 36.5t20 55t7.5 69t-7.5 68t-20 54t-30 36t-38.5 13zM241 -65l393 824l55 -27l-393 -823z" />
    <glyph glyph-name="ampersand" unicode="&#x26;" horiz-adv-x="655" 
d="M628 349q-16 7 -27.5 9.5t-28.5 2.5q-8 0 -19.5 -0.5t-24.5 -1.5q28 -29 39 -55.5t11 -64.5q0 -53 -22 -98t-61 -78t-92.5 -51.5t-115.5 -18.5q-57 0 -104.5 17t-81 47t-52.5 72t-19 93q0 63 26 103t88 72q-48 48 -48 118q0 75 53 117t148 42q20 0 37.5 -1.5t43.5 -4.5
v-111q-17 23 -36 32.5t-45 9.5q-22 0 -40.5 -8t-32 -22t-21.5 -33.5t-8 -41.5q0 -38 18 -65t58 -48q-133 -34 -133 -141q0 -31 12.5 -57t34 -45t52 -29.5t66.5 -10.5t66.5 11t52.5 31t34.5 47.5t12.5 60.5q0 22 -7 41t-19.5 33t-29.5 22t-36 8q-11 0 -30 -3q2 17 3 30t1 22
q0 8 -1 21t-3 30q19 -6 34 -9.5t30 -5.5t31.5 -3t38.5 -1q23 0 41 1t34.5 3t33.5 5.5t38 9.5v-51v-52z" />
    <glyph glyph-name="quotesingle" unicode="'" horiz-adv-x="175" 
d="M53 407q-2 66 -5.5 129.5t-10.5 130.5l17 -1q11 -1 19 -1h13h11t22 1l18 1q-7 -67 -10.5 -130.5t-5.5 -129.5h-68z" />
    <glyph glyph-name="parenleft" unicode="(" horiz-adv-x="267" 
d="M242 -103q-30 29 -51 51.5t-37 44t-29.5 44.5t-27.5 53q-32 66 -49 127.5t-17 112.5q0 32 7.5 70.5t21 79t32 80.5t41.5 76q10 16 20 30t22.5 28.5t28.5 31t38 37.5q-32 -72 -53.5 -131t-34.5 -110t-19 -97.5t-6 -94.5t6 -94.5t19 -97.5t34.5 -110t53.5 -131z" />
    <glyph glyph-name="parenright" unicode=")" horiz-adv-x="267" 
d="M26 -103q31 72 53 131t35.5 110t19.5 97.5t6 94.5t-6 94.5t-19.5 97.5t-35.5 110t-53 131q30 -29 51 -51.5t37 -44t29.5 -44.5t27.5 -53q32 -66 49 -127.5t17 -112.5q0 -32 -7.5 -70.5t-21 -79t-32.5 -80.5t-41 -76q-11 -16 -21 -30t-22.5 -28.5t-28 -31t-37.5 -37.5z
" />
    <glyph glyph-name="asterisk" unicode="*" horiz-adv-x="382" 
d="M190 604q13 24 20.5 40t12.5 30t9.5 30.5t10.5 42.5q16 -20 26.5 -32.5t20.5 -23t22 -21t32 -26.5q-25 -5 -41.5 -8.5t-31.5 -8t-32 -11.5t-43 -19q26 -12 43 -19t32 -11.5t31.5 -8.5t41.5 -8q-20 -16 -32 -27t-22 -21.5t-20.5 -23t-26.5 -31.5q-6 25 -10 41.5t-9.5 31
t-13 30.5t-20.5 40l-20 -40t-13 -30.5t-9 -31t-10 -41.5q-16 19 -26.5 31.5t-20.5 23t-22.5 21.5t-31.5 27q25 4 41.5 8t31.5 8.5t31.5 11.5t42.5 19q-26 12 -42.5 19t-31.5 11.5t-31.5 8t-41.5 8.5q19 16 31.5 26.5t22.5 21t20.5 23t26.5 32.5q6 -26 10 -42.5t9 -30.5
t13 -30z" />
    <glyph glyph-name="plus" unicode="+" 
d="M225 229h-184v76h184v212h79v-212h184v-76h-184v-214h-79v214z" />
    <glyph glyph-name="comma" unicode="," horiz-adv-x="184" 
d="M82 -3q-45 6 -45 47q0 22 15.5 37.5t36.5 15.5q24 0 38.5 -17t14.5 -44q0 -24 -9.5 -46t-26.5 -39q-13 -11 -26.5 -18t-39.5 -12q20 22 28.5 36.5t13.5 39.5z" />
    <glyph glyph-name="hyphen" unicode="-" horiz-adv-x="253" 
d="M253 398q-3 -39 -3 -58t3 -58q-17 6 -30.5 9.5t-27 6t-29.5 3t-39 0.5t-39 -0.5t-30 -3t-27.5 -6t-30.5 -9.5q3 39 3 58t-3 58q19 -6 32.5 -9.5t27 -5.5t29 -2.5t38.5 -0.5q22 0 38 0.5t29.5 2.5t27 5.5t31.5 9.5z" />
    <glyph glyph-name="period" unicode="." horiz-adv-x="184" 
d="M93 97q23 0 37 -14.5t14 -37.5t-14.5 -37.5t-37.5 -14.5t-37.5 14t-14.5 36q0 25 14.5 39.5t38.5 14.5z" />
    <glyph glyph-name="slash" unicode="/" horiz-adv-x="387" 
d="M-31 -66l393 824l54 -27l-391 -824z" />
    <glyph glyph-name="zero" unicode="0" horiz-adv-x="601" 
d="M304 681q57 0 105.5 -26t84 -72.5t55.5 -110t20 -137.5q0 -77 -20 -141t-55.5 -110t-85.5 -71.5t-110 -25.5q-113 0 -185 88q-84 102 -84 254q0 78 20 142.5t56.5 111t87 72.5t111.5 26zM295 609q-35 0 -64 -21t-50.5 -58t-33.5 -88t-12 -111q0 -57 12.5 -106t34.5 -85.5
t51.5 -57t64.5 -20.5t65.5 21t52.5 58t34.5 87.5t12.5 109.5t-12.5 108.5t-35 85.5t-53.5 56.5t-67 20.5z" />
    <glyph glyph-name="one" unicode="1" horiz-adv-x="265" 
d="M26 0q20 8 32 15t18 18t8 27.5t2 42.5v440q0 21 -2.5 34.5t-10 22t-20.5 14t-33 9.5v7q30 7 51.5 12.5t40 11t36.5 12t39 14.5v-577q0 -26 2 -42.5t8 -27.5t18 -18t32 -15h-221z" />
    <glyph glyph-name="two" unicode="2" horiz-adv-x="481" 
d="M124 109q58 67 97.5 118t63.5 91.5t34 74t10 66.5q0 55 -38.5 89.5t-99.5 34.5q-105 0 -144 -98v21q0 81 47.5 127.5t132.5 46.5q46 0 84.5 -15t66.5 -42t43 -64.5t15 -82.5q0 -33 -7 -64.5t-22.5 -64t-40 -67.5t-58.5 -75q-16 -18 -29.5 -33.5t-28 -30.5t-30.5 -30.5
t-37 -34.5h179q20 0 34 3.5t23.5 12t16 23t11.5 36.5v-164q-11 8 -21.5 10.5t-33.5 2.5h-363z" />
    <glyph glyph-name="three" unicode="3" horiz-adv-x="511" 
d="M298 592h-176q-40 0 -58 -11t-29 -42v141q12 -8 20.5 -10.5t25.5 -2.5h365l-177 -252q49 -4 78 -14t55 -32q34 -29 52 -69.5t18 -88.5t-18 -89t-50 -71t-76 -47t-95 -17q-45 0 -81.5 14t-62.5 39t-40.5 60.5t-14.5 77.5v12.5t1 16.5q12 -31 22 -48.5t27 -34.5
q26 -26 58 -39.5t68 -13.5q33 0 62 12t50 32.5t33.5 48t12.5 59.5q0 42 -17 70t-54 45q-42 20 -83 20q-14 0 -32 -2t-41 -5z" />
    <glyph glyph-name="four" unicode="4" horiz-adv-x="540" 
d="M251 0q20 8 32 15t18 18t8 27.5t2 42.5v159h-292l389 445v-369h28q31 0 45.5 11t24.5 42v-184q-8 32 -22 43.5t-46 11.5h-30v-159q0 -26 2 -42.5t8 -27.5t18 -18t32 -15h-217zM311 338v136l-119 -136h119z" />
    <glyph glyph-name="five" unicode="5" horiz-adv-x="492" 
d="M89 667h264q31 0 44.5 3.5t28.5 16.5v-166q-7 23 -13.5 36.5t-17 21t-27.5 9.5t-45 2h-160l-8 -165q28 8 45.5 11t40.5 3q48 0 87.5 -16t68 -45.5t44 -71t15.5 -91.5t-17 -92t-47 -72t-72 -47t-92 -17q-97 0 -150 61q-21 23 -32 50t-11 55q0 12 3 36q11 -32 22 -47
t34 -31q50 -35 106 -35q32 0 59.5 11t48 30t32 45.5t11.5 56.5q0 31 -11.5 56.5t-32 44t-49 29t-62.5 10.5q-32 0 -58 -7.5t-65 -28.5z" />
    <glyph glyph-name="six" unicode="6" horiz-adv-x="542" 
d="M509 679q-36 -9 -65 -19t-53 -21.5t-44.5 -25t-41.5 -31.5q-36 -30 -64 -67t-47.5 -78t-30 -85.5t-10.5 -89.5q0 -37 10 -68.5t28.5 -54t43.5 -35t55 -12.5q21 0 39.5 8.5t32 23t21.5 34.5t8 43q0 25 -9.5 47t-26 38t-39 25.5t-48.5 9.5q-32 0 -53 -9.5t-44 -32.5
q10 27 19 41.5t27 29.5q46 37 105 37q38 0 71 -14.5t57 -40.5t38 -61t14 -75q0 -44 -17 -82t-46.5 -66.5t-70 -44.5t-86.5 -16q-51 0 -93.5 20.5t-74 57.5t-49 87t-17.5 110q0 85 33.5 161t91 133t133.5 90.5t161 33.5h18t24 -1z" />
    <glyph glyph-name="seven" unicode="7" horiz-adv-x="524" 
d="M367 592h-237q-46 0 -70 -14.5t-36 -48.5v158q15 -12 28.5 -16t39.5 -4h413l-355 -667h-126z" />
    <glyph glyph-name="eight" unicode="8" horiz-adv-x="505" 
d="M317 399q26 -14 39.5 -22t27.5 -18q45 -30 65 -68t20 -91q0 -46 -16.5 -85t-46 -67.5t-70.5 -44.5t-89 -16q-44 0 -81.5 15t-65 41.5t-43.5 62t-16 77.5q0 74 51 128q19 20 38.5 32.5t54.5 26.5q-107 60 -107 158q0 33 12.5 61t35.5 48.5t54 31.5t69 11q37 0 67.5 -10.5
t52.5 -29t34.5 -44t12.5 -56.5q0 -20 -5 -36.5t-16.5 -33t-30.5 -33.5t-47 -38zM268 423q37 27 53 52t16 57q0 33 -23.5 56t-57.5 23q-35 0 -60 -24t-25 -58q0 -22 11.5 -41.5t31.5 -33.5q10 -7 19.5 -12.5t34.5 -18.5zM236 346q-59 -31 -84.5 -64t-25.5 -82
q0 -26 8.5 -47.5t24 -37.5t37 -25t46.5 -9t47 9.5t38.5 26.5t26 39.5t9.5 48.5q0 22 -6 40t-20.5 34t-39 32t-61.5 35z" />
    <glyph glyph-name="nine" unicode="9" horiz-adv-x="531" 
d="M36 -9q73 19 123 43.5t94 63.5q66 57 103 140t37 171q0 37 -10 68t-27.5 53.5t-41.5 35t-53 12.5q-22 0 -41 -8.5t-33.5 -23t-22.5 -34t-8 -42.5q0 -25 9.5 -47t26.5 -38t40 -25.5t49 -9.5q33 0 53.5 9t40.5 33q-5 -14 -9 -24.5t-9 -18t-11 -14t-14 -13.5
q-46 -38 -107 -38q-38 0 -71 14.5t-57 40t-38 60t-14 73.5q0 44 17 82t46.5 66t69.5 44t87 16q111 0 175 -88q28 -38 43 -86.5t15 -99.5q0 -39 -9 -79.5t-25.5 -79t-40 -74t-52.5 -64.5q-28 -28 -61.5 -50.5t-69.5 -38.5t-73 -24.5t-71 -8.5q-11 0 -25.5 1t-34.5 3z" />
    <glyph glyph-name="colon" unicode=":" horiz-adv-x="184" 
d="M93 97q23 0 37 -14.5t14 -37.5t-14.5 -37.5t-37.5 -14.5t-37.5 14t-14.5 36q0 25 14.5 39.5t38.5 14.5zM93 279q23 0 37 -14.5t14 -37.5t-14.5 -37.5t-37.5 -14.5t-37.5 14t-14.5 36q0 25 14.5 39.5t38.5 14.5z" />
    <glyph glyph-name="semicolon" unicode=";" horiz-adv-x="184" 
d="M82 -3q-45 6 -45 47q0 22 15.5 37.5t36.5 15.5q24 0 38.5 -17t14.5 -44q0 -24 -9.5 -46t-26.5 -39q-13 -11 -26.5 -18t-39.5 -12q20 22 28.5 36.5t13.5 39.5zM93 279q23 0 37 -14.5t14 -37.5t-14.5 -37.5t-37.5 -14.5t-37.5 14t-14.5 36q0 25 14.5 39.5t38.5 14.5z" />
    <glyph glyph-name="less" unicode="&#x3c;" 
d="M480 13l-431 217v71l431 217v-85l-337 -167v-2l337 -165v-86z" />
    <glyph glyph-name="equal" unicode="=" 
d="M37 376q3 31 3 47t-3 48q31 -3 55 -5t48.5 -3t53.5 -1.5t70 -0.5q42 0 71 0.5t53.5 1.5t48 3t55.5 5q-2 -16 -3 -28t-1 -20t1 -19.5t3 -27.5q-32 3 -55.5 5t-48 3t-53.5 1.5t-71 0.5q-41 0 -70 -0.5t-53.5 -1.5t-48.5 -3t-55 -5zM37 202q3 31 3 48q0 16 -3 48
q31 -3 55 -5t48.5 -3t53 -1.5t70.5 -0.5t71 0.5t53.5 1.5t48 3t55.5 5q-2 -16 -3 -28t-1 -20t1 -20t3 -28q-32 3 -55.5 5.5t-48 3.5t-53.5 1.5t-71 0.5t-70.5 -0.5t-53 -1.5t-48.5 -3.5t-55 -5.5z" />
    <glyph glyph-name="greater" unicode="&#x3e;" 
d="M49 98l341 166v2l-341 167v85l431 -215v-75l-431 -215v85z" />
    <glyph glyph-name="question" unicode="?" horiz-adv-x="344" 
d="M169 97q22 0 36 -14.5t14 -37.5t-15 -37.5t-37 -14.5t-37 15t-15 36q0 23 15.5 38t38.5 15zM205 341q-45 -46 -45 -86q0 -25 17.5 -41t44.5 -16q14 0 25 3.5t28 12.5q-29 -58 -94 -58q-24 0 -45.5 9.5t-37.5 25.5t-25.5 37.5t-9.5 45.5q0 32 15 64t43 58l41 39
q42 39 42 76q0 32 -23.5 52.5t-60.5 20.5q-30 0 -52 -12.5t-48 -43.5l5 118q40 15 69.5 21t61.5 6q72 0 113.5 -38.5t41.5 -104.5q0 -81 -69 -150z" />
    <glyph glyph-name="at" unicode="@" horiz-adv-x="753" 
d="M569 25q-39 -12 -67.5 -19t-53 -11.5t-47 -6t-49.5 -1.5q-74 0 -132.5 20.5t-99 59.5t-62.5 94.5t-22 125.5q0 85 28.5 157t79.5 124.5t120.5 82t151.5 29.5q67 0 122 -19t94.5 -54t61 -83.5t21.5 -106.5q0 -54 -16 -104.5t-43 -89.5t-62 -62t-72 -23q-32 0 -52 18.5
t-25 50.5q-52 -65 -116 -65q-54 0 -87.5 37.5t-33.5 97.5q0 48 17 92.5t45 79t64.5 55.5t75.5 21q26 0 46.5 -8t40.5 -26l5 26h74l-43 -193q-6 -28 -10 -55t-4 -39q0 -37 23 -37q20 0 40 19.5t36.5 51t26.5 71t10 78.5q0 92 -62 148q-35 31 -81.5 47.5t-99.5 16.5
q-64 0 -118.5 -25t-94 -69t-62 -104.5t-22.5 -131.5q0 -122 68.5 -188t196.5 -66q22 0 42 1.5t40.5 5.5t43 11t50.5 17zM483 432q-11 15 -29 24.5t-35 9.5q-26 0 -49.5 -16t-42.5 -42.5t-30 -60.5t-11 -71q0 -35 15 -55t41 -20q41 0 76 49.5t54 132.5z" />
    <glyph glyph-name="A" unicode="A" horiz-adv-x="646" 
d="M-7 0q17 7 28.5 14t20 16t15.5 22t15 32l248 613l277 -633q6 -14 11.5 -23t13 -15.5t18 -12.5t25.5 -13h-220q41 16 41 42q0 13 -9 34l-75 187h-179l-74 -201q-5 -13 -5 -24q0 -13 6.5 -21.5t22.5 -16.5h-180zM376 332l-65 159l-62 -159h127z" />
    <glyph glyph-name="B" unicode="B" horiz-adv-x="558" 
d="M35 0q21 8 33 15t19 17.5t9 25.5t2 39v473q0 24 -2 39t-9 25.5t-19 17.5t-33 15h273q80 0 127.5 -41t47.5 -109q0 -104 -119 -157q85 -21 122.5 -62t37.5 -112q0 -51 -21 -91t-60 -63q-25 -15 -66.5 -23.5t-91.5 -8.5h-250zM198 395h56q49 0 81 29.5t32 76.5
q0 44 -29 71.5t-75 27.5h-65v-205zM291 80q52 0 83 30.5t31 81.5q0 56 -40.5 89t-109.5 33h-57v-177q0 -32 11 -44.5t39 -12.5h43z" />
    <glyph glyph-name="C" unicode="C" horiz-adv-x="648" 
d="M615 27q-38 -12 -67 -19.5t-54.5 -12t-49.5 -6.5t-51 -2q-164 0 -261 102q-48 50 -73.5 113.5t-25.5 134.5q0 75 27 137.5t75 108.5t114 71.5t144 25.5q35 0 71 -3t81 -10q7 -1 13 -1.5t11 -0.5q11 0 19 4.5t17 17.5v-160q-19 26 -34.5 39.5t-43.5 25.5q-55 23 -115 23
q-59 0 -106.5 -19.5t-82 -55.5t-53 -86.5t-18.5 -111.5q0 -63 18 -113.5t52 -86.5t81.5 -55t107.5 -19q75 0 140 34q15 7 25 13.5t18.5 13.5t16.5 16t17 21z" />
    <glyph glyph-name="D" unicode="D" horiz-adv-x="720" 
d="M35 0q21 8 33 15t19 17.5t9 25.5t2 39v473q0 24 -2 39t-9 25.5t-19 17.5t-33 15h298q167 0 259 -89q46 -45 70 -105.5t24 -129.5q0 -43 -10 -84t-28 -77.5t-44.5 -67.5t-59.5 -53q-44 -29 -106.5 -45t-138.5 -16h-264zM311 78q57 0 104.5 19.5t81.5 54.5t53 83.5
t19 107.5t-18.5 106t-53 80t-84 50.5t-110.5 17.5h-105v-456q0 -36 11.5 -49.5t43.5 -13.5h58z" />
    <glyph glyph-name="E" unicode="E" horiz-adv-x="505" 
d="M35 0q21 8 33 15t19 17.5t9 25.5t2 39v473q0 24 -2 39t-9 25.5t-19 17.5t-33 15h353q24 0 35.5 6.5t27.5 26.5v-182q-9 24 -20 39.5t-25 25.5t-32 14t-43 4h-136v-207h120q46 0 69 12.5t38 44.5v-193q-7 17 -12.5 25t-14.5 15q-6 5 -11.5 8t-14 4.5t-20.5 2t-32 0.5h-122
v-165q0 -40 11 -54.5t43 -14.5h91q58 0 91 24.5t53 82.5q-5 -36 -8 -59.5t-5 -42.5t-3 -38t-2 -46h-431z" />
    <glyph glyph-name="F" unicode="F" horiz-adv-x="487" 
d="M37 0q21 8 33 15t19 17.5t9 25.5t2 39v473q0 24 -2 39t-9 25.5t-19 17.5t-33 15h340q34 0 50 7t29 26v-180q-12 24 -22.5 39.5t-24 24.5t-31 12.5t-42.5 3.5h-138v-203h129q24 0 41 2.5t28 10t19 19.5t14 32v-201q-5 15 -9 22.5t-12 15.5q-6 5 -12 8.5t-14.5 5t-22.5 2
t-36 0.5h-125v-217q0 -24 2 -39t9 -25.5t19 -17.5t33 -15h-224z" />
    <glyph glyph-name="G" unicode="G" horiz-adv-x="677" 
d="M508 233q0 24 -2 39.5t-9 25.5t-19 17t-33 15h225q-21 -8 -33 -15t-19 -17t-9 -25.5t-2 -39.5v-215q-54 -15 -109 -23t-109 -8q-94 0 -166.5 34.5t-120.5 100.5q-34 47 -51.5 101.5t-17.5 111.5q0 76 27.5 139.5t76.5 109.5t117.5 71t151.5 25q29 0 63.5 -4t79.5 -13
q7 -1 12 -1.5t10 -0.5q11 0 19 6t17 20v-166q-14 23 -27 35.5t-33 23.5q-59 31 -133 31q-60 0 -109 -20t-83.5 -56t-53.5 -87t-19 -113q0 -59 18.5 -109t51.5 -86.5t78 -57t99 -20.5q12 0 23 0.5t24 1.5t28.5 3.5t36.5 5.5v160z" />
    <glyph glyph-name="H" unicode="H" horiz-adv-x="727" 
d="M35 0q21 8 33 15t19 17.5t9 25.5t2 39v473q0 24 -2 39t-9 25.5t-19 17.5t-33 15h228q-21 -8 -33 -15t-19 -17.5t-9 -25.5t-2 -39v-174h325v174q0 24 -2 39t-9 25.5t-19 17.5t-33 15h229q-21 -8 -33 -15t-19 -17.5t-9 -25.5t-2 -39v-473q0 -24 2 -39t9 -25.5t19 -17.5
t33 -15h-229q21 8 33 15t19 17.5t9 25.5t2 39v216h-325v-216q0 -24 2 -39t9 -25.5t19 -17.5t33 -15h-228z" />
    <glyph glyph-name="I" unicode="I" horiz-adv-x="297" 
d="M35 0q21 8 33 15t19 17.5t9 25.5t2 39v473q0 24 -2 39t-9 25.5t-19 17.5t-33 15h225q-21 -8 -33 -15t-19 -17.5t-9 -25.5t-2 -39v-473q0 -24 2 -39t9 -25.5t19 -17.5t33 -15h-225z" />
    <glyph glyph-name="J" unicode="J" horiz-adv-x="417" 
d="M224 564q0 26 -2 42.5t-8 27.5t-18 18t-32 15h224q-21 -8 -33 -15t-19 -17.5t-9 -25.5t-2 -39v-383q0 -51 -10 -85.5t-31 -58.5q-24 -27 -58 -41.5t-72 -14.5q-29 0 -53.5 9t-42.5 25t-28 38t-10 47q0 7 1 16.5t3 20.5q14 -43 38 -62t62 -19q48 0 74 33t26 94v375z" />
    <glyph glyph-name="K" unicode="K" horiz-adv-x="607" 
d="M35 0q21 8 33 15t19 17.5t9 25.5t2 39v473q0 24 -2 39t-9 25.5t-19 17.5t-33 15h227q-21 -8 -33 -15t-19 -17.5t-9 -25.5t-2 -39v-214l188 250q14 20 18 26t4 11q0 16 -32 24h207q-20 -8 -33 -14t-23.5 -14.5t-21.5 -21t-27 -32.5l-166 -218l160 -226q28 -40 46.5 -64
t33.5 -39t30.5 -23t36.5 -15h-233q28 14 28 33q0 22 -28 62l-188 260v-258q0 -24 2 -39t9 -25.5t19 -17.5t33 -15h-227z" />
    <glyph glyph-name="L" unicode="L" horiz-adv-x="480" 
d="M35 0q21 8 33 15t19 17.5t9 25.5t2 39v473q0 24 -2 39t-9 25.5t-19 17.5t-33 15h226q-21 -8 -33 -15t-19 -17.5t-9 -25.5t-2 -39v-418q0 -22 2.5 -36t8.5 -21.5t17.5 -10.5t29.5 -3h88q27 0 47.5 4t36 14t28 25.5t23.5 39.5q-3 -31 -4.5 -50.5t-3 -36t-2.5 -34t-3 -43.5
h-431z" />
    <glyph glyph-name="M" unicode="M" horiz-adv-x="836" 
d="M183 492l-20 -373q-1 -6 -1 -14v-17q0 -20 2 -33.5t7 -23t14 -17t24 -14.5h-186q18 8 30 17t19.5 21.5t11.5 29.5t5 41l24 444v15q0 23 -3.5 38t-13 25.5t-27.5 18.5t-46 17h186l204 -476l212 476h174q-23 -8 -38 -16.5t-24 -19.5t-13 -25t-4 -33v-11t1 -13l17 -407
q1 -36 5 -59.5t12 -39.5t22 -25.5t35 -17.5h-218q16 7 26 14.5t15.5 17.5t7.5 24.5t2 35.5v16.5t-1 21.5l-19 373l-224 -520z" />
    <glyph glyph-name="N" unicode="N" horiz-adv-x="771" 
d="M177 527v-430q0 -24 2 -39t9 -25.5t19 -17.5t33 -15h-204q21 8 33 15t19 17.5t9 25.5t2 39v444q0 28 -3.5 48t-12.5 34t-24.5 24.5t-38.5 19.5h157l418 -454v353q0 27 -2 43.5t-8 27t-17 17.5t-30 13h193q-19 -6 -30 -13t-17 -17.5t-8 -27t-2 -43.5v-583z" />
    <glyph glyph-name="O" unicode="O" horiz-adv-x="732" 
d="M371 680q72 0 132 -25t103.5 -70.5t68 -108.5t24.5 -138q0 -74 -25.5 -138.5t-70.5 -111.5t-106 -74t-132 -27t-132 27t-105.5 74.5t-70 112.5t-25.5 140q0 81 31.5 152t86.5 117q42 34 98.5 52t122.5 18zM367 606q-48 0 -88.5 -20.5t-70.5 -56.5t-47 -85.5t-17 -107.5
q0 -59 17 -109.5t46 -88t69 -59t87 -21.5q54 0 103.5 29t79.5 80q20 32 30.5 76.5t10.5 94.5q0 61 -16 110.5t-44.5 84.5t-69.5 54t-90 19z" />
    <glyph glyph-name="P" unicode="P" horiz-adv-x="533" 
d="M35 0q21 8 33 15t19 17.5t9 25.5t2 39v473q0 24 -2 39t-9 25.5t-19 17.5t-33 15h251q64 0 104 -12.5t67 -41.5q49 -51 49 -124q0 -40 -15.5 -75.5t-42 -61.5t-62.5 -41.5t-77 -15.5q-33 0 -56 9.5t-45 32.5q34 -8 49 -8q26 0 50.5 12.5t44 32.5t31.5 46.5t12 53.5
q0 29 -15 56t-40 44q-35 22 -97 22h-47v-499q0 -24 2 -39t9 -25.5t19 -17.5t33 -15h-224z" />
    <glyph glyph-name="Q" unicode="Q" horiz-adv-x="739" 
d="M719 -144q-37 -8 -64.5 -12t-56.5 -4q-45 0 -84 8.5t-74 26t-67.5 44.5t-64.5 65q-29 6 -52 13t-43.5 17.5t-38.5 24t-37 32.5q-104 102 -104 259q0 76 25 140.5t70 111t107 72.5t136 26q73 0 134.5 -26t106 -72.5t69 -110.5t24.5 -141q0 -172 -124 -275
q-17 -14 -33.5 -24.5t-34.5 -19t-38.5 -14.5t-46.5 -12q53 -57 126 -87.5t163 -33.5zM361 603q-47 0 -86.5 -19.5t-68 -55t-44.5 -84.5t-16 -107q0 -62 17 -113.5t47 -89t72 -58.5t92 -21q46 0 86 21t68.5 58.5t45 89t16.5 112.5q0 58 -17 107t-48 84.5t-73 55.5t-91 20z
" />
    <glyph glyph-name="R" unicode="R" horiz-adv-x="570" 
d="M35 0q21 8 33 15t19 17.5t9 25.5t2 39v473q0 24 -2 39t-9 25.5t-19 17.5t-33 15h260q105 0 162.5 -45.5t57.5 -129.5q0 -41 -16.5 -77t-47.5 -62q-25 -21 -49.5 -30.5t-67.5 -14.5q15 -16 24.5 -26.5t18 -21t18 -24.5t24.5 -36l69 -100q16 -23 28.5 -38.5t25 -26.5
t26.5 -19t34 -16h-163q-24 26 -43 50.5t-43 62.5l-41 68q-11 18 -20 32.5t-19 27.5t-21.5 27t-26.5 32h-23v-203q0 -24 2 -39t9 -25.5t19 -17.5t33 -15h-230zM253 373q45 0 72 8t44 27q30 30 30 74q0 55 -39 86.5t-108 31.5h-50v-227h51z" />
    <glyph glyph-name="S" unicode="S" horiz-adv-x="448" 
d="M35 154q38 -42 78 -64t81 -22q23 0 44 8.5t36.5 23.5t25 34.5t9.5 41.5q0 69 -90 127l-68 44q-104 66 -104 167q0 36 14 66.5t39.5 52.5t60.5 34.5t77 12.5q11 0 18.5 -0.5t16.5 -2t23 -5t39 -10.5q12 -3 18 -3q13 0 29 16l7 -159q-12 23 -21 34t-21 22
q-23 19 -51.5 29.5t-58.5 10.5q-40 0 -67 -24.5t-27 -60.5q0 -26 14 -43.5t53 -43.5l83 -56q55 -37 84 -85t29 -105q0 -44 -17.5 -82t-47.5 -65.5t-71 -43.5t-89 -16q-16 0 -29.5 1t-29.5 4.5t-36.5 9.5t-50.5 15v137z" />
    <glyph glyph-name="T" unicode="T" horiz-adv-x="579" 
d="M175 0q21 8 33 15t19 17.5t9 25.5t2 39v499h-104q-56 0 -84 -17t-43 -62v177q11 -9 20 -14t18.5 -8t21.5 -4t30 -1h386q35 0 54 5.5t36 21.5v-177q-17 42 -46 60.5t-78 18.5h-110v-499q0 -24 2 -39t9 -25.5t19 -17.5t33 -15h-227z" />
    <glyph glyph-name="U" unicode="U" horiz-adv-x="689" 
d="M518 570q0 24 -2 39t-9 25.5t-19 17.5t-33 15h211q-21 -8 -33 -15t-19 -17.5t-9 -25.5t-2 -39v-306q0 -78 -15.5 -129t-49.5 -83q-32 -32 -86 -49t-124 -17q-65 0 -114 18t-79 53q-26 29 -38 77t-12 122v314q0 24 -2 39t-9 25.5t-19 17.5t-33 15h227q-21 -8 -33 -15
t-19 -17.5t-9 -25.5t-2 -39v-329q0 -55 8.5 -85t31.5 -51q20 -18 51.5 -28t69.5 -10q54 0 92 17.5t57 50.5q22 38 22 120v315z" />
    <glyph glyph-name="V" unicode="V" horiz-adv-x="696" 
d="M68 560q-12 27 -22 44.5t-20.5 29t-23 19t-29.5 14.5h231q-45 -13 -45 -43q0 -8 3 -16t13 -30l187 -395l192 409q10 23 10 35q0 28 -42 40h201q-18 -7 -30.5 -13.5t-22.5 -18t-20 -30.5t-25 -50l-276 -581z" />
    <glyph glyph-name="W" unicode="W" horiz-adv-x="920" 
d="M41 611q-6 12 -11 20.5t-11.5 14.5t-16 11t-22.5 10h195q-29 -10 -29 -24q0 -5 1 -8t8 -20l157 -415l92 197l-92 210q-7 15 -12.5 25t-11.5 16.5t-13 10.5t-17 8h181q-24 -8 -24 -24q0 -5 1.5 -9.5t7.5 -19.5l38 -92l47 102q7 14 7 22q0 13 -25 21h153q-12 -4 -20 -8.5
t-14.5 -11t-12.5 -17t-15 -27.5l-80 -170l98 -227l169 400q9 21 10.5 25.5t1.5 9.5q0 14 -29 26h188q-23 -9 -36.5 -16t-23.5 -18t-19.5 -29.5t-23.5 -50.5l-255 -579l-138 335l-157 -335z" />
    <glyph glyph-name="X" unicode="X" horiz-adv-x="637" 
d="M-13 0q17 9 28.5 16t22 17t22 25.5t28.5 39.5l175 244l-156 236q-15 23 -25.5 37.5t-22 23.5t-26 15.5t-36.5 12.5h239q-5 -2 -9.5 -3.5t-9.5 -3.5q-24 -8 -24 -19t11 -27l119 -184l110 155q25 36 25 52q0 21 -34 30h220q-26 -9 -41.5 -16t-27 -15.5t-22 -21t-24.5 -33.5
l-158 -224l176 -268q12 -20 22.5 -34t22 -23.5t25.5 -17t34 -14.5h-227l15 7q20 10 20 23q0 10 -11 27l-138 213l-145 -206q-15 -21 -15 -33q0 -8 9 -14t35 -17h-207z" />
    <glyph glyph-name="Y" unicode="Y" horiz-adv-x="623" 
d="M200 0q21 8 33 15t19 17.5t9 25.5t2 39v198l-177 275q-20 31 -31.5 48.5t-22 27t-22 13.5t-30.5 8h235q-37 -13 -37 -38q0 -8 3.5 -17t13.5 -25l131 -209l136 224q5 8 7.5 15.5t2.5 13.5q0 24 -38 36h209q-19 -6 -31.5 -11.5t-23 -14.5t-21 -24t-25.5 -39l-175 -283v-198
q0 -24 2 -39t9 -25.5t19 -17.5t33 -15h-230z" />
    <glyph glyph-name="Z" unicode="Z" horiz-adv-x="631" 
d="M431 594h-265q-56 0 -84.5 -21.5t-44.5 -76.5v198q10 -9 17 -14.5t14.5 -8.5t16.5 -3.5t24 -0.5h496l-421 -587h290q47 0 75 24t48 81v-212q-17 16 -34 21.5t-48 5.5h-508z" />
    <glyph glyph-name="bracketleft" unicode="[" horiz-adv-x="396" 
d="M135 -80q5 23 7.5 45t2.5 55v620q0 33 -2.5 55t-7.5 45h223v-33q-10 2 -15.5 2.5t-11.5 0.5q-25 0 -47.5 -8.5t-34.5 -22.5q-11 -11 -14 -22t-3 -31v-592q0 -23 5.5 -36t19.5 -25q12 -10 33 -16.5t41 -6.5q6 0 11.5 0.5t15.5 2.5v-33h-223z" />
    <glyph glyph-name="backslash" unicode="\" horiz-adv-x="387" 
d="M-29 731l54 27l393 -824l-55 -27z" />
    <glyph glyph-name="bracketright" unicode="]" horiz-adv-x="396" 
d="M37 -47q10 -2 15.5 -2.5t11.5 -0.5q25 0 47.5 8.5t34.5 22.5q11 11 14 22t3 31v592q0 23 -5.5 36t-19.5 25q-12 10 -33 16.5t-41 6.5q-6 0 -11.5 -0.5t-15.5 -2.5v33h223q-5 -23 -7.5 -45t-2.5 -55v-620q0 -33 2.5 -55t7.5 -45h-223v33z" />
    <glyph glyph-name="asciicircum" unicode="^" 
d="M46 290l181 405h74l182 -405h-87l-131 310h-2l-131 -310h-86z" />
    <glyph glyph-name="underscore" unicode="_" horiz-adv-x="500" 
d="M0 -60h500v-84h-500v84z" />
    <glyph glyph-name="grave" unicode="`" horiz-adv-x="500" 
d="M83 759q9 16 14 27t9.5 20.5t9 20t11.5 27.5q27 -26 45 -43t34.5 -32.5t36.5 -33.5t51 -45q-40 13 -65.5 21t-47 14t-43.5 11t-55 13z" />
    <glyph glyph-name="a" unicode="a" horiz-adv-x="646" 
d="M-7 0q17 7 28.5 14t20 16t15.5 22t15 32l248 613l277 -633q6 -14 11.5 -23t13 -15.5t18 -12.5t25.5 -13h-220q41 16 41 42q0 13 -9 34l-75 187h-179l-74 -201q-5 -13 -5 -24q0 -13 6.5 -21.5t22.5 -16.5h-180zM376 332l-65 159l-62 -159h127z" />
    <glyph glyph-name="b" unicode="b" horiz-adv-x="558" 
d="M35 0q21 8 33 15t19 17.5t9 25.5t2 39v473q0 24 -2 39t-9 25.5t-19 17.5t-33 15h273q80 0 127.5 -41t47.5 -109q0 -104 -119 -157q85 -21 122.5 -62t37.5 -112q0 -51 -21 -91t-60 -63q-25 -15 -66.5 -23.5t-91.5 -8.5h-250zM198 395h56q49 0 81 29.5t32 76.5
q0 44 -29 71.5t-75 27.5h-65v-205zM291 80q52 0 83 30.5t31 81.5q0 56 -40.5 89t-109.5 33h-57v-177q0 -32 11 -44.5t39 -12.5h43z" />
    <glyph glyph-name="c" unicode="c" horiz-adv-x="648" 
d="M615 27q-38 -12 -67 -19.5t-54.5 -12t-49.5 -6.5t-51 -2q-164 0 -261 102q-48 50 -73.5 113.5t-25.5 134.5q0 75 27 137.5t75 108.5t114 71.5t144 25.5q35 0 71 -3t81 -10q7 -1 13 -1.5t11 -0.5q11 0 19 4.5t17 17.5v-160q-19 26 -34.5 39.5t-43.5 25.5q-55 23 -115 23
q-59 0 -106.5 -19.5t-82 -55.5t-53 -86.5t-18.5 -111.5q0 -63 18 -113.5t52 -86.5t81.5 -55t107.5 -19q75 0 140 34q15 7 25 13.5t18.5 13.5t16.5 16t17 21z" />
    <glyph glyph-name="d" unicode="d" horiz-adv-x="720" 
d="M35 0q21 8 33 15t19 17.5t9 25.5t2 39v473q0 24 -2 39t-9 25.5t-19 17.5t-33 15h298q167 0 259 -89q46 -45 70 -105.5t24 -129.5q0 -43 -10 -84t-28 -77.5t-44.5 -67.5t-59.5 -53q-44 -29 -106.5 -45t-138.5 -16h-264zM311 78q57 0 104.5 19.5t81.5 54.5t53 83.5
t19 107.5t-18.5 106t-53 80t-84 50.5t-110.5 17.5h-105v-456q0 -36 11.5 -49.5t43.5 -13.5h58z" />
    <glyph glyph-name="e" unicode="e" horiz-adv-x="505" 
d="M35 0q21 8 33 15t19 17.5t9 25.5t2 39v473q0 24 -2 39t-9 25.5t-19 17.5t-33 15h353q24 0 35.5 6.5t27.5 26.5v-182q-9 24 -20 39.5t-25 25.5t-32 14t-43 4h-136v-207h120q46 0 69 12.5t38 44.5v-193q-7 17 -12.5 25t-14.5 15q-6 5 -11.5 8t-14 4.5t-20.5 2t-32 0.5h-122
v-165q0 -40 11 -54.5t43 -14.5h91q58 0 91 24.5t53 82.5q-5 -36 -8 -59.5t-5 -42.5t-3 -38t-2 -46h-431z" />
    <glyph glyph-name="f" unicode="f" horiz-adv-x="487" 
d="M37 0q21 8 33 15t19 17.5t9 25.5t2 39v473q0 24 -2 39t-9 25.5t-19 17.5t-33 15h340q34 0 50 7t29 26v-180q-12 24 -22.5 39.5t-24 24.5t-31 12.5t-42.5 3.5h-138v-203h129q24 0 41 2.5t28 10t19 19.5t14 32v-201q-5 15 -9 22.5t-12 15.5q-6 5 -12 8.5t-14.5 5t-22.5 2
t-36 0.5h-125v-217q0 -24 2 -39t9 -25.5t19 -17.5t33 -15h-224z" />
    <glyph glyph-name="g" unicode="g" horiz-adv-x="677" 
d="M508 233q0 24 -2 39.5t-9 25.5t-19 17t-33 15h225q-21 -8 -33 -15t-19 -17t-9 -25.5t-2 -39.5v-215q-54 -15 -109 -23t-109 -8q-94 0 -166.5 34.5t-120.5 100.5q-34 47 -51.5 101.5t-17.5 111.5q0 76 27.5 139.5t76.5 109.5t117.5 71t151.5 25q29 0 63.5 -4t79.5 -13
q7 -1 12 -1.5t10 -0.5q11 0 19 6t17 20v-166q-14 23 -27 35.5t-33 23.5q-59 31 -133 31q-60 0 -109 -20t-83.5 -56t-53.5 -87t-19 -113q0 -59 18.5 -109t51.5 -86.5t78 -57t99 -20.5q12 0 23 0.5t24 1.5t28.5 3.5t36.5 5.5v160z" />
    <glyph glyph-name="h" unicode="h" horiz-adv-x="727" 
d="M35 0q21 8 33 15t19 17.5t9 25.5t2 39v473q0 24 -2 39t-9 25.5t-19 17.5t-33 15h228q-21 -8 -33 -15t-19 -17.5t-9 -25.5t-2 -39v-174h325v174q0 24 -2 39t-9 25.5t-19 17.5t-33 15h229q-21 -8 -33 -15t-19 -17.5t-9 -25.5t-2 -39v-473q0 -24 2 -39t9 -25.5t19 -17.5
t33 -15h-229q21 8 33 15t19 17.5t9 25.5t2 39v216h-325v-216q0 -24 2 -39t9 -25.5t19 -17.5t33 -15h-228z" />
    <glyph glyph-name="i" unicode="i" horiz-adv-x="297" 
d="M35 0q21 8 33 15t19 17.5t9 25.5t2 39v473q0 24 -2 39t-9 25.5t-19 17.5t-33 15h225q-21 -8 -33 -15t-19 -17.5t-9 -25.5t-2 -39v-473q0 -24 2 -39t9 -25.5t19 -17.5t33 -15h-225z" />
    <glyph glyph-name="j" unicode="j" horiz-adv-x="417" 
d="M224 564q0 26 -2 42.5t-8 27.5t-18 18t-32 15h224q-21 -8 -33 -15t-19 -17.5t-9 -25.5t-2 -39v-383q0 -51 -10 -85.5t-31 -58.5q-24 -27 -58 -41.5t-72 -14.5q-29 0 -53.5 9t-42.5 25t-28 38t-10 47q0 7 1 16.5t3 20.5q14 -43 38 -62t62 -19q48 0 74 33t26 94v375z" />
    <glyph glyph-name="k" unicode="k" horiz-adv-x="607" 
d="M35 0q21 8 33 15t19 17.5t9 25.5t2 39v473q0 24 -2 39t-9 25.5t-19 17.5t-33 15h227q-21 -8 -33 -15t-19 -17.5t-9 -25.5t-2 -39v-214l188 250q14 20 18 26t4 11q0 16 -32 24h207q-20 -8 -33 -14t-23.5 -14.5t-21.5 -21t-27 -32.5l-166 -218l160 -226q28 -40 46.5 -64
t33.5 -39t30.5 -23t36.5 -15h-233q28 14 28 33q0 22 -28 62l-188 260v-258q0 -24 2 -39t9 -25.5t19 -17.5t33 -15h-227z" />
    <glyph glyph-name="l" unicode="l" horiz-adv-x="480" 
d="M35 0q21 8 33 15t19 17.5t9 25.5t2 39v473q0 24 -2 39t-9 25.5t-19 17.5t-33 15h226q-21 -8 -33 -15t-19 -17.5t-9 -25.5t-2 -39v-418q0 -22 2.5 -36t8.5 -21.5t17.5 -10.5t29.5 -3h88q27 0 47.5 4t36 14t28 25.5t23.5 39.5q-3 -31 -4.5 -50.5t-3 -36t-2.5 -34t-3 -43.5
h-431z" />
    <glyph glyph-name="m" unicode="m" horiz-adv-x="836" 
d="M183 492l-20 -373q-1 -6 -1 -14v-17q0 -20 2 -33.5t7 -23t14 -17t24 -14.5h-186q18 8 30 17t19.5 21.5t11.5 29.5t5 41l24 444v15q0 23 -3.5 38t-13 25.5t-27.5 18.5t-46 17h186l204 -476l212 476h174q-23 -8 -38 -16.5t-24 -19.5t-13 -25t-4 -33v-11t1 -13l17 -407
q1 -36 5 -59.5t12 -39.5t22 -25.5t35 -17.5h-218q16 7 26 14.5t15.5 17.5t7.5 24.5t2 35.5v16.5t-1 21.5l-19 373l-224 -520z" />
    <glyph glyph-name="n" unicode="n" horiz-adv-x="771" 
d="M177 527v-430q0 -24 2 -39t9 -25.5t19 -17.5t33 -15h-204q21 8 33 15t19 17.5t9 25.5t2 39v444q0 28 -3.5 48t-12.5 34t-24.5 24.5t-38.5 19.5h157l418 -454v353q0 27 -2 43.5t-8 27t-17 17.5t-30 13h193q-19 -6 -30 -13t-17 -17.5t-8 -27t-2 -43.5v-583z" />
    <glyph glyph-name="o" unicode="o" horiz-adv-x="732" 
d="M371 680q72 0 132 -25t103.5 -70.5t68 -108.5t24.5 -138q0 -74 -25.5 -138.5t-70.5 -111.5t-106 -74t-132 -27t-132 27t-105.5 74.5t-70 112.5t-25.5 140q0 81 31.5 152t86.5 117q42 34 98.5 52t122.5 18zM367 606q-48 0 -88.5 -20.5t-70.5 -56.5t-47 -85.5t-17 -107.5
q0 -59 17 -109.5t46 -88t69 -59t87 -21.5q54 0 103.5 29t79.5 80q20 32 30.5 76.5t10.5 94.5q0 61 -16 110.5t-44.5 84.5t-69.5 54t-90 19z" />
    <glyph glyph-name="p" unicode="p" horiz-adv-x="533" 
d="M35 0q21 8 33 15t19 17.5t9 25.5t2 39v473q0 24 -2 39t-9 25.5t-19 17.5t-33 15h251q64 0 104 -12.5t67 -41.5q49 -51 49 -124q0 -40 -15.5 -75.5t-42 -61.5t-62.5 -41.5t-77 -15.5q-33 0 -56 9.5t-45 32.5q34 -8 49 -8q26 0 50.5 12.5t44 32.5t31.5 46.5t12 53.5
q0 29 -15 56t-40 44q-35 22 -97 22h-47v-499q0 -24 2 -39t9 -25.5t19 -17.5t33 -15h-224z" />
    <glyph glyph-name="q" unicode="q" horiz-adv-x="739" 
d="M719 -144q-37 -8 -64.5 -12t-56.5 -4q-45 0 -84 8.5t-74 26t-67.5 44.5t-64.5 65q-29 6 -52 13t-43.5 17.5t-38.5 24t-37 32.5q-104 102 -104 259q0 76 25 140.5t70 111t107 72.5t136 26q73 0 134.5 -26t106 -72.5t69 -110.5t24.5 -141q0 -172 -124 -275
q-17 -14 -33.5 -24.5t-34.5 -19t-38.5 -14.5t-46.5 -12q53 -57 126 -87.5t163 -33.5zM361 603q-47 0 -86.5 -19.5t-68 -55t-44.5 -84.5t-16 -107q0 -62 17 -113.5t47 -89t72 -58.5t92 -21q46 0 86 21t68.5 58.5t45 89t16.5 112.5q0 58 -17 107t-48 84.5t-73 55.5t-91 20z
" />
    <glyph glyph-name="r" unicode="r" horiz-adv-x="570" 
d="M35 0q21 8 33 15t19 17.5t9 25.5t2 39v473q0 24 -2 39t-9 25.5t-19 17.5t-33 15h260q105 0 162.5 -45.5t57.5 -129.5q0 -41 -16.5 -77t-47.5 -62q-25 -21 -49.5 -30.5t-67.5 -14.5q15 -16 24.5 -26.5t18 -21t18 -24.5t24.5 -36l69 -100q16 -23 28.5 -38.5t25 -26.5
t26.5 -19t34 -16h-163q-24 26 -43 50.5t-43 62.5l-41 68q-11 18 -20 32.5t-19 27.5t-21.5 27t-26.5 32h-23v-203q0 -24 2 -39t9 -25.5t19 -17.5t33 -15h-230zM253 373q45 0 72 8t44 27q30 30 30 74q0 55 -39 86.5t-108 31.5h-50v-227h51z" />
    <glyph glyph-name="s" unicode="s" horiz-adv-x="448" 
d="M35 154q38 -42 78 -64t81 -22q23 0 44 8.5t36.5 23.5t25 34.5t9.5 41.5q0 69 -90 127l-68 44q-104 66 -104 167q0 36 14 66.5t39.5 52.5t60.5 34.5t77 12.5q11 0 18.5 -0.5t16.5 -2t23 -5t39 -10.5q12 -3 18 -3q13 0 29 16l7 -159q-12 23 -21 34t-21 22
q-23 19 -51.5 29.5t-58.5 10.5q-40 0 -67 -24.5t-27 -60.5q0 -26 14 -43.5t53 -43.5l83 -56q55 -37 84 -85t29 -105q0 -44 -17.5 -82t-47.5 -65.5t-71 -43.5t-89 -16q-16 0 -29.5 1t-29.5 4.5t-36.5 9.5t-50.5 15v137z" />
    <glyph glyph-name="t" unicode="t" horiz-adv-x="579" 
d="M175 0q21 8 33 15t19 17.5t9 25.5t2 39v499h-104q-56 0 -84 -17t-43 -62v177q11 -9 20 -14t18.5 -8t21.5 -4t30 -1h386q35 0 54 5.5t36 21.5v-177q-17 42 -46 60.5t-78 18.5h-110v-499q0 -24 2 -39t9 -25.5t19 -17.5t33 -15h-227z" />
    <glyph glyph-name="u" unicode="u" horiz-adv-x="689" 
d="M518 570q0 24 -2 39t-9 25.5t-19 17.5t-33 15h211q-21 -8 -33 -15t-19 -17.5t-9 -25.5t-2 -39v-306q0 -78 -15.5 -129t-49.5 -83q-32 -32 -86 -49t-124 -17q-65 0 -114 18t-79 53q-26 29 -38 77t-12 122v314q0 24 -2 39t-9 25.5t-19 17.5t-33 15h227q-21 -8 -33 -15
t-19 -17.5t-9 -25.5t-2 -39v-329q0 -55 8.5 -85t31.5 -51q20 -18 51.5 -28t69.5 -10q54 0 92 17.5t57 50.5q22 38 22 120v315z" />
    <glyph glyph-name="v" unicode="v" horiz-adv-x="696" 
d="M68 560q-12 27 -22 44.5t-20.5 29t-23 19t-29.5 14.5h231q-45 -13 -45 -43q0 -8 3 -16t13 -30l187 -395l192 409q10 23 10 35q0 28 -42 40h201q-18 -7 -30.5 -13.5t-22.5 -18t-20 -30.5t-25 -50l-276 -581z" />
    <glyph glyph-name="w" unicode="w" horiz-adv-x="920" 
d="M41 611q-6 12 -11 20.5t-11.5 14.5t-16 11t-22.5 10h195q-29 -10 -29 -24q0 -5 1 -8t8 -20l157 -415l92 197l-92 210q-7 15 -12.5 25t-11.5 16.5t-13 10.5t-17 8h181q-24 -8 -24 -24q0 -5 1.5 -9.5t7.5 -19.5l38 -92l47 102q7 14 7 22q0 13 -25 21h153q-12 -4 -20 -8.5
t-14.5 -11t-12.5 -17t-15 -27.5l-80 -170l98 -227l169 400q9 21 10.5 25.5t1.5 9.5q0 14 -29 26h188q-23 -9 -36.5 -16t-23.5 -18t-19.5 -29.5t-23.5 -50.5l-255 -579l-138 335l-157 -335z" />
    <glyph glyph-name="x" unicode="x" horiz-adv-x="637" 
d="M-13 0q17 9 28.5 16t22 17t22 25.5t28.5 39.5l175 244l-156 236q-15 23 -25.5 37.5t-22 23.5t-26 15.5t-36.5 12.5h239q-5 -2 -9.5 -3.5t-9.5 -3.5q-24 -8 -24 -19t11 -27l119 -184l110 155q25 36 25 52q0 21 -34 30h220q-26 -9 -41.5 -16t-27 -15.5t-22 -21t-24.5 -33.5
l-158 -224l176 -268q12 -20 22.5 -34t22 -23.5t25.5 -17t34 -14.5h-227l15 7q20 10 20 23q0 10 -11 27l-138 213l-145 -206q-15 -21 -15 -33q0 -8 9 -14t35 -17h-207z" />
    <glyph glyph-name="y" unicode="y" horiz-adv-x="623" 
d="M200 0q21 8 33 15t19 17.5t9 25.5t2 39v198l-177 275q-20 31 -31.5 48.5t-22 27t-22 13.5t-30.5 8h235q-37 -13 -37 -38q0 -8 3.5 -17t13.5 -25l131 -209l136 224q5 8 7.5 15.5t2.5 13.5q0 24 -38 36h209q-19 -6 -31.5 -11.5t-23 -14.5t-21 -24t-25.5 -39l-175 -283v-198
q0 -24 2 -39t9 -25.5t19 -17.5t33 -15h-230z" />
    <glyph glyph-name="z" unicode="z" horiz-adv-x="631" 
d="M431 594h-265q-56 0 -84.5 -21.5t-44.5 -76.5v198q10 -9 17 -14.5t14.5 -8.5t16.5 -3.5t24 -0.5h496l-421 -587h290q47 0 75 24t48 81v-212q-17 16 -34 21.5t-48 5.5h-508z" />
    <glyph glyph-name="braceleft" unicode="{" horiz-adv-x="357" 
d="M239 -87q-22 0 -43.5 8.5t-35.5 23.5q-19 19 -26.5 44.5t-7.5 68.5v164q0 30 -3 49.5t-10 32t-19.5 18.5t-30.5 8q18 2 30.5 8t19.5 18.5t10 32t3 49.5v164q0 43 7.5 68.5t26.5 44.5q14 15 35.5 23.5t43.5 8.5h37q-18 -2 -30.5 -10t-19.5 -24t-10 -42t-3 -65v-166
q0 -37 -2.5 -55t-10.5 -29q-8 -13 -18.5 -18.5t-27.5 -7.5q36 -3 51 -35q8 -19 8 -75v-166q0 -39 3 -65t10 -42t19.5 -24t30.5 -10h-37z" />
    <glyph glyph-name="bar" unicode="|" horiz-adv-x="500" 
d="M203 667h93v-834h-93v834z" />
    <glyph glyph-name="braceright" unicode="}" horiz-adv-x="357" 
d="M79 -87q18 2 30.5 10t19.5 24t10 42t3 65v166q0 37 2.5 55t10.5 29q8 13 18.5 18.5t27.5 7.5q-36 3 -51 35q-8 19 -8 75v166q0 39 -3 65t-10 42t-19.5 24t-30.5 10h37q22 0 43.5 -8.5t35.5 -23.5q19 -19 26.5 -44.5t7.5 -68.5v-164q0 -30 3 -49.5t10 -32t19.5 -18.5
t30.5 -8q-18 -2 -30.5 -8t-19.5 -18.5t-10 -32t-3 -49.5v-164q0 -43 -7.5 -68.5t-26.5 -44.5q-14 -15 -35.5 -23.5t-43.5 -8.5h-37z" />
    <glyph glyph-name="asciitilde" unicode="~" 
d="M23 609q14 29 21.5 43t17.5 27q40 54 103 54q20 0 45 -7t64 -24q22 -9 36 -15t24 -9t17.5 -4t16.5 -1q26 0 44 13t39 49l55 -32q-18 -38 -32 -57t-33 -33q-18 -14 -40.5 -22t-44.5 -8q-10 0 -20.5 2t-26.5 7t-38.5 14t-56.5 23q-15 7 -30.5 10.5t-26.5 3.5
q-24 0 -42.5 -15.5t-38.5 -52.5z" />
    <glyph glyph-name="uni00A0" unicode="&#xa0;" horiz-adv-x="250" 
 />
    <glyph glyph-name="exclamdown" unicode="&#xa1;" horiz-adv-x="185" 
d="M95 673q21 0 36 -15.5t15 -36.5q0 -23 -15 -37.5t-38 -14.5q-22 0 -36.5 14.5t-14.5 36.5q0 23 15 38t38 15zM93 523q13 -59 23.5 -121t18 -121t12 -112t4.5 -93q0 -45 -13 -64t-45 -19t-45.5 19t-13.5 64q0 40 4.5 93t12 112t18.5 121t24 121z" />
    <glyph glyph-name="cent" unicode="&#xa2;" horiz-adv-x="484" 
d="M237 91q-23 3 -37 7t-30 12q-61 29 -97 87.5t-36 129.5q0 69 35 126t94 85q17 8 32 12.5t39 8.5v111h47v-108q23 0 45 -2t52 -7l15 -1q8 0 16 7.5t19 26.5v-166q-17 28 -31 41.5t-35 21.5q-16 7 -34.5 10.5t-33.5 3.5h-5t-8 -1v-332q114 0 166 86l-13 -133
q-26 -8 -46 -13.5t-37.5 -9t-34 -5t-35.5 -1.5v-91h-47v94zM237 487q-96 -38 -96 -157q0 -60 24 -100.5t72 -57.5v315z" />
    <glyph glyph-name="sterling" unicode="&#xa3;" horiz-adv-x="481" 
d="M452 15q-50 -28 -111 -28q-65 0 -135 40q-23 -24 -43 -33t-49 -9q-42 0 -67 20t-25 53q0 30 23 49t61 19q17 0 34.5 -3.5t46.5 -12.5q4 18 5 29.5t1 26.5q0 70 -34 150h-106v47h92l-21 51q-12 31 -19 60t-7 52q0 32 14 60t38 49t56.5 33t70.5 12q32 0 59 -7.5t60 -24.5
l8 -110q-20 33 -54 54.5t-68 21.5q-36 0 -61 -20.5t-25 -49.5q0 -9 0.5 -14.5t2.5 -12t6 -17t12 -29.5l44 -108h123v-47h-111q6 -20 8.5 -34t2.5 -33q0 -37 -10.5 -79t-30.5 -80q20 -7 32.5 -11.5t21 -6.5t15.5 -3t15 -1q32 0 65 15t60 42v-110zM157 55q-16 9 -28.5 12.5
t-26.5 3.5q-13 0 -21 -5.5t-8 -13.5q0 -10 9.5 -16t23.5 -6q32 0 51 25z" />
    <glyph glyph-name="currency" unicode="&#xa4;" 
d="M402 145q-63 -47 -138 -47t-137 47l-58 -67q-10 12 -16.5 19.5t-13 14t-14 13t-19.5 16.5l70 61q-20 32 -29 64t-9 70q0 73 37 135l-69 62q12 9 19.5 15.5t14 13t13 14t16.5 19.5l59 -67q33 22 64.5 31.5t72.5 9.5t72.5 -9.5t63.5 -31.5l59 67q10 -12 16.5 -19.5t13 -14
t14 -13t19.5 -15.5l-69 -61q19 -32 28 -64.5t9 -70.5q0 -74 -37 -135l69 -61q-12 -10 -19.5 -16.5t-14 -13t-13 -14t-16.5 -19.5zM265 499q-32 0 -60 -12.5t-48 -34t-31.5 -51.5t-11.5 -65q0 -36 11.5 -66.5t31.5 -53t47.5 -35.5t59.5 -13q33 0 61 12.5t48 34.5t31 53t11 68
q0 74 -41 118.5t-109 44.5z" />
    <glyph glyph-name="yen" unicode="&#xa5;" horiz-adv-x="463" 
d="M125 0q18 7 29.5 14.5t17.5 17.5t8 25.5t2 39.5v159h-143v47h139l-34 73h-112v47h90l-68 147q-4 9 -7.5 18.5t-8.5 19.5q-7 15 -13 25.5t-13 17t-16.5 10t-23.5 6.5h207q-38 -14 -38 -45q0 -14 10 -35l94 -209l97 223q5 13 5 23q0 29 -38 43h181q-17 -6 -28 -11.5
t-18.5 -14.5t-14.5 -23.5t-17 -39.5l-69 -155h87v-47h-107l-33 -73h134v-47h-138v-159q0 -24 2 -39.5t8 -25.5t17.5 -17.5t29.5 -14.5h-218z" />
    <glyph glyph-name="brokenbar" unicode="&#xa6;" horiz-adv-x="500" 
d="M203 667h93v-338h-93v338zM203 153h93v-320h-93v320z" />
    <glyph glyph-name="section" unicode="&#xa7;" 
d="M89 75q11 -17 15.5 -23t10.5 -13q22 -25 57.5 -38.5t77.5 -13.5q51 0 82.5 23t31.5 59q0 27 -24 48q-6 6 -11.5 9.5t-18.5 9.5t-38 15.5t-70 26.5q-86 32 -125.5 75.5t-39.5 103.5q0 45 25.5 81.5t67.5 52.5l7 2l-14 12q-18 16 -29.5 42.5t-11.5 53.5q0 32 14 60
t38.5 48.5t58 32.5t71.5 12q11 0 25 -1.5t27.5 -4t25 -6t19.5 -6.5q9 -4 15.5 -6.5t9.5 -2.5q12 -1 24 12l6 7v-152q-23 39 -63 60.5t-91 21.5q-36 0 -60 -20t-24 -49t26 -49q8 -6 14.5 -10.5t20.5 -10.5t40 -15.5t74 -27.5q71 -26 104.5 -65.5t33.5 -96.5q0 -48 -25.5 -85
t-68.5 -50l-8 -2l7 -5q29 -21 45 -51t16 -65q0 -36 -15 -67t-42 -53t-64 -34.5t-81 -12.5q-48 0 -87 12.5t-79 40.5v115zM323 240q36 8 58.5 30t22.5 49q0 33 -24 52q-5 4 -12 8.5t-18.5 9.5t-29 12t-43.5 18q-15 6 -24.5 10t-17.5 7t-15 6t-16 7q-79 -18 -79 -80
q0 -32 22 -53t79 -42q19 -8 39.5 -16t48.5 -20z" />
    <glyph glyph-name="dieresis" unicode="&#xa8;" horiz-adv-x="500" 
d="M349 839q26 0 44 -19.5t18 -45.5t-18.5 -44t-44.5 -18t-45 18.5t-19 44.5t19.5 45t45.5 19zM154 839q26 0 44 -19.5t18 -45.5t-18.5 -44t-44.5 -18t-45 18.5t-19 44.5t19.5 45t45.5 19z" />
    <glyph glyph-name="copyright" unicode="&#xa9;" horiz-adv-x="768" 
d="M390 680q70 0 131.5 -27.5t108 -75t73.5 -110.5t27 -134q0 -72 -27 -135t-74 -110t-110 -74t-134 -27t-134 27.5t-110 74.5t-74.5 110t-27.5 134q0 73 27.5 136t74.5 110t111 74t138 27zM382 632q-60 0 -112.5 -23.5t-92 -64t-62.5 -95t-23 -115.5q0 -62 23 -116.5
t63 -95t93.5 -64t113.5 -23.5t113.5 23.5t93 64t62.5 94.5t23 116q0 63 -23 117.5t-62.5 95t-93.5 63.5t-116 23zM523 159q-23 -7 -40.5 -11.5t-32.5 -7t-29 -3.5t-30 -1q-117 0 -176 85q-18 25 -27 54t-9 60q0 42 16 78t44 62.5t66.5 41t84.5 14.5q20 0 41.5 -1.5
t47.5 -6.5q4 -1 8 -1h6q12 0 24 12v-96q-38 50 -114 50q-67 0 -107.5 -41t-40.5 -108q0 -71 39.5 -111t108.5 -40q40 0 73.5 14.5t54.5 40.5z" />
    <glyph glyph-name="ordfeminine" unicode="&#xaa;" horiz-adv-x="269" 
d="M190 267q-5 8 -5.5 11.5t-2.5 12.5q-29 -34 -75 -34q-37 0 -62 22.5t-25 55.5q0 35 30 57q20 14 96 32q13 3 19 5t11 5q-2 23 -11.5 32.5t-33.5 9.5q-59 0 -88 -45v63q40 27 94 27q60 0 81 -32q4 -8 7 -15.5t4.5 -18t2 -26t0.5 -38.5v-35q0 -20 0.5 -33t2 -22t5 -17
t8.5 -17h-58zM176 392q-14 -6 -24 -9t-23 -7q-30 -8 -41 -16.5t-11 -22.5q0 -15 11.5 -24.5t28.5 -9.5q26 0 42.5 24.5t16.5 64.5z" />
    <glyph glyph-name="guillemotleft" unicode="&#xab;" horiz-adv-x="406" 
d="M220 334q31 13 51 23t36 21t32 26t40 40q5 -14 7 -23t2 -17q0 -18 -5.5 -34.5t-18.5 -35.5q13 -19 18.5 -35.5t5.5 -34.5q0 -8 -2 -17t-7 -23q-24 25 -40 40.5t-32 26.5t-36 20.5t-51 22.5zM20 334q31 13 51 23t36 21t32 26t40 40q5 -14 7 -23t2 -17q0 -18 -5.5 -34.5
t-18.5 -35.5q13 -19 18.5 -35.5t5.5 -34.5q0 -8 -2 -17t-7 -23q-24 25 -40 40.5t-32 26.5t-36 20.5t-51 22.5z" />
    <glyph glyph-name="logicalnot" unicode="&#xac;" 
d="M409 335h-368v75h447v-255h-79v180z" />
    <glyph glyph-name="uni00AD" unicode="&#xad;" horiz-adv-x="253" 
d="M253 398q-3 -39 -3 -58t3 -58q-17 6 -30.5 9.5t-27 6t-29.5 3t-39 0.5t-39 -0.5t-30 -3t-27.5 -6t-30.5 -9.5q3 39 3 58t-3 58q19 -6 32.5 -9.5t27 -5.5t29 -2.5t38.5 -0.5q22 0 38 0.5t29.5 2.5t27 5.5t31.5 9.5z" />
    <glyph glyph-name="registered" unicode="&#xae;" horiz-adv-x="459" 
d="M233 689q43 0 80.5 -16.5t65.5 -45t44.5 -67t16.5 -81.5q0 -44 -16.5 -82t-45 -66.5t-66.5 -45t-81 -16.5q-44 0 -82 16.5t-67 45t-45.5 66.5t-16.5 82t16.5 82t45.5 66.5t68 45t83 16.5zM229 660q-36 0 -68 -14.5t-56 -39t-38 -57.5t-14 -70t14 -70t38 -57.5t56.5 -39
t69.5 -14.5q36 0 68 14.5t56 39t38 57.5t14 70q0 38 -14 71t-38 57.5t-56.5 38.5t-69.5 14zM140 366q15 6 18.5 11.5t3.5 23.5v161q0 17 -3.5 23t-18.5 11h93q38 0 59 -16t21 -45q0 -22 -14.5 -40.5t-36.5 -21.5l-11 -2q8 -9 12.5 -14t15.5 -20l23 -34q6 -9 10.5 -15t9 -9.5
t9 -6.5t12.5 -6h-59q-9 9 -16 17.5t-16 21.5l-14 24q-8 11 -13.5 19t-15.5 19h-6v-66q0 -18 3.5 -24t18.5 -11h-85zM218 497q49 0 49 35q0 38 -49 38h-15v-73h15z" />
    <glyph glyph-name="macron" unicode="&#xaf;" horiz-adv-x="500" 
d="M87 825q24 -3 41.5 -4.5t35 -2t37.5 -1t49 -0.5t49 0.5t37.5 1t35 2t41.5 4.5v-86q-24 3 -42 4.5t-35 2t-37 1t-49 0.5t-49 -0.5t-37 -1t-35 -2t-42 -4.5v86z" />
    <glyph glyph-name="degree" unicode="&#xb0;" horiz-adv-x="368" 
d="M185 680q30 0 56.5 -11.5t46 -31t31 -45.5t11.5 -55q0 -30 -11.5 -56t-31.5 -45.5t-47 -31t-57 -11.5t-56.5 11t-46.5 30.5t-31.5 46t-11.5 56.5t11.5 56t31.5 45.5t47 30.5t58 11zM182 623q-18 0 -33.5 -7t-27 -18.5t-18.5 -27t-7 -33.5q0 -36 25.5 -61.5t61.5 -25.5
q18 0 34 7t28 18.5t19 27t7 33.5q0 37 -25.5 62t-63.5 25z" />
    <glyph glyph-name="plusminus" unicode="&#xb1;" 
d="M225 358q-37 0 -60.5 -0.5t-42.5 -1.5t-38 -3t-47 -5q3 31 3 48q0 16 -3 48q29 -3 49.5 -5t40.5 -3t42.5 -1.5t55.5 -0.5q-1 35 -1.5 56.5t-1.5 39t-2.5 34t-4.5 42.5q33 -3 49 -3q17 0 50 3q-3 -26 -4.5 -42.5t-2.5 -34t-1.5 -39t-1.5 -56.5q37 0 60.5 0.5t42 1.5
t37.5 3t48 5q-2 -16 -3 -28t-1 -20t1 -20t3 -28q-29 3 -48 5t-37.5 3t-42 1.5t-60.5 0.5q1 -35 1.5 -56.5t1.5 -39t2.5 -34.5t4.5 -42q-33 3 -50 3q-16 0 -49 -3q3 25 4.5 42t2.5 34.5t1.5 39t1.5 56.5zM37 61q3 31 3 47t-3 48q31 -3 55 -5t48.5 -3t53.5 -1.5t70 -0.5
q42 0 71 0.5t53.5 1.5t48 3t55.5 5q-2 -16 -3 -28t-1 -20t1 -19.5t3 -27.5q-32 3 -55.5 5t-48 3t-53.5 1.5t-71 0.5q-41 0 -70 -0.5t-53.5 -1.5t-48.5 -3t-55 -5z" />
    <glyph glyph-name="uni00B2" unicode="&#xb2;" horiz-adv-x="345" 
d="M98 337q35 38 59 67.5t39 53.5t21.5 44t6.5 39q0 31 -23 50.5t-60 19.5q-66 0 -91 -58q-1 5 -1 9.5v7.5q0 48 31 76.5t84 28.5q60 0 96.5 -34.5t36.5 -89.5q0 -51 -35.5 -106t-115.5 -127h102q27 0 38 9t18 35v-106q-9 7 -16.5 9t-20.5 2h-233z" />
    <glyph glyph-name="uni00B3" unicode="&#xb3;" horiz-adv-x="345" 
d="M32 396q34 -81 111 -81q41 0 68 25t27 63q0 34 -25 54.5t-67 20.5q-10 0 -21 -1t-31 -4l98 143h-103q-27 0 -38.5 -6t-18.5 -25v93l5 -4q8 -5 12 -6t15 -1h233l-110 -149q33 -3 52 -11.5t36 -25.5q34 -36 34 -86q0 -29 -11.5 -54t-32 -43t-48 -28.5t-59.5 -10.5
q-59 0 -92.5 33t-33.5 90v14z" />
    <glyph glyph-name="acute" unicode="&#xb4;" horiz-adv-x="500" 
d="M416 759q-33 -8 -55 -13t-43.5 -11t-47 -14t-65.5 -21q31 27 51 45t36.5 33.5t34.5 32.5t45 43q7 -17 11.5 -27.5t9 -20t9.5 -20.5t14 -27z" />
    <glyph glyph-name="mu" unicode="&#xb5;" horiz-adv-x="568" 
d="M73 496h92v-306q0 -42 6 -64t21 -37q29 -29 85 -29q60 0 88 32t28 101v303h91v-399q0 -24 2 -39.5t9 -25.5t19 -17.5t33 -14.5h-154v47q-47 -57 -138 -57q-59 0 -105 26l30 -186h-107v666z" />
    <glyph glyph-name="paragraph" unicode="&#xb6;" 
d="M197 -80q21 8 33 15t19 17.5t9 25.5t2 39v356h-50q-45 0 -73.5 8t-48.5 26q-11 10 -20.5 27t-16 37.5t-10.5 43t-4 45.5q0 45 18 85t50 63q44 32 134 32h281q-21 -8 -33 -15t-19 -17.5t-9 -25.5t-2 -39v-626q0 -24 2 -39t9 -25.5t19 -17.5t33 -15h-323zM384 -33v706h-51
v-706h51z" />
    <glyph glyph-name="periodcentered" unicode="&#xb7;" horiz-adv-x="250" 
d="M126 326q24 0 41 -17t17 -42t-17 -42t-42 -17t-42 16.5t-17 41.5q0 26 17 43t43 17z" />
    <glyph glyph-name="cedilla" unicode="&#xb8;" horiz-adv-x="500" 
d="M167 -147q27 -24 61 -24q20 0 32 9t12 24q0 16 -12.5 26t-31.5 10q-12 0 -23.5 -3.5t-28.5 -12.5l36 118h45l-18 -66q6 2 9.5 2h8.5q32 0 54.5 -21.5t22.5 -52.5q0 -36 -27.5 -58.5t-71.5 -22.5q-19 0 -34.5 3t-33.5 10v59z" />
    <glyph glyph-name="uni00B9" unicode="&#xb9;" horiz-adv-x="345" 
d="M103 267q12 5 19.5 9.5t11.5 11t5 16.5t1 27v260q0 26 -7.5 35t-33.5 14q19 5 33 9t26 7.5t24 8.5t27 11v-345q0 -17 1 -27t4.5 -16.5t11 -11t20.5 -9.5h-143z" />
    <glyph glyph-name="ordmasculine" unicode="&#xba;" horiz-adv-x="281" 
d="M142 520q25 0 47 -10t38 -27.5t25 -41.5t9 -52t-9 -52t-25.5 -42t-38.5 -28t-48 -10q-25 0 -47 10t-38 28t-25.5 42t-9.5 52t9 52.5t25.5 41.5t39 27t48.5 10zM140 473q-26 0 -44 -25t-18 -59q0 -35 18 -60t44 -25t44.5 25t18.5 60t-18.5 59.5t-44.5 24.5z" />
    <glyph glyph-name="guillemotright" unicode="&#xbb;" horiz-adv-x="406" 
d="M191 334q-31 -13 -51 -22.5t-36 -20.5t-32 -26.5t-40 -40.5q-5 14 -6.5 23t-1.5 17q0 19 5.5 35t18.5 35q-13 20 -18.5 36t-5.5 35q0 8 1.5 16.5t6.5 22.5q24 -25 40 -40t32 -26t36 -21t51 -23zM391 334q-31 -13 -51 -22.5t-36 -20.5t-32 -26.5t-40 -40.5q-5 14 -6.5 23
t-1.5 17q0 19 5.5 35t18.5 35q-13 20 -18.5 36t-5.5 35q0 8 1.5 16.5t6.5 22.5q24 -25 40 -40t32 -26t36 -21t51 -23z" />
    <glyph glyph-name="onequarter" unicode="&#xbc;" horiz-adv-x="822" 
d="M103 267q12 5 19.5 9.5t11.5 11t5 16.5t1 27v260q0 26 -7.5 35t-33.5 14q19 5 33 9t26 7.5t24 8.5t27 11v-345q0 -17 1 -27t4.5 -16.5t11 -11t20.5 -9.5h-143zM274 -18l-49 23l324 681l48 -25zM631 0q12 5 19.5 9.5t11.5 11t5 16.5t1 27v91h-179l246 274v-223h14
q21 0 30.5 6t16.5 25v-114q-6 20 -14.5 26t-30.5 6h-16v-91q0 -17 1 -27t5 -16.5t11.5 -11t19.5 -9.5h-141zM668 206v68l-61 -68h61z" />
    <glyph glyph-name="onehalf" unicode="&#xbd;" horiz-adv-x="822" 
d="M103 267q12 5 19.5 9.5t11.5 11t5 16.5t1 27v260q0 26 -7.5 35t-33.5 14q19 5 33 9t26 7.5t24 8.5t27 11v-345q0 -17 1 -27t4.5 -16.5t11 -11t20.5 -9.5h-143zM274 -18l-49 23l324 681l48 -25zM575 70q35 38 59 67.5t39 53.5t21.5 44t6.5 39q0 31 -23 50t-60 19
q-66 0 -91 -58q-1 6 -1 10.5v6.5q0 48 31 76.5t84 28.5q60 0 96.5 -34.5t36.5 -89.5q0 -51 -35.5 -105.5t-115.5 -126.5h102q27 0 38 9t18 35v-106q-9 7 -16.5 9t-20.5 2h-233z" />
    <glyph glyph-name="threequarters" unicode="&#xbe;" horiz-adv-x="822" 
d="M32 396q34 -81 111 -81q41 0 68 25t27 63q0 34 -25 54.5t-67 20.5q-10 0 -21 -1t-31 -4l98 143h-103q-27 0 -38.5 -6t-18.5 -25v93l5 -4q8 -5 12 -6t15 -1h233l-110 -149q33 -3 52 -11.5t36 -25.5q34 -36 34 -86q0 -29 -11.5 -54t-32 -43t-48 -28.5t-59.5 -10.5
q-59 0 -92.5 33t-33.5 90v14zM225 5l325 681l48 -25l-323 -679zM632 0q12 5 19.5 9.5t11.5 11t5 16.5t1 27v91h-179l246 274v-223h14q21 0 30.5 6t16.5 25v-114q-6 20 -14.5 26t-30.5 6h-16v-91q0 -17 1 -27t5 -16.5t11.5 -11t19.5 -9.5h-141zM669 206v68l-61 -68h61z" />
    <glyph glyph-name="questiondown" unicode="&#xbf;" horiz-adv-x="344" 
d="M178 673q21 0 36 -15.5t15 -36.5q0 -23 -15 -37.5t-38 -14.5q-22 0 -36.5 14.5t-14.5 36.5q0 23 15 38t38 15zM319 20q-41 -15 -70 -21t-61 -6q-72 0 -113.5 38.5t-41.5 104.5q0 81 68 151l38 38q24 25 34.5 45t10.5 41q0 26 -17.5 42t-44.5 16q-14 0 -25 -3.5t-28 -13.5
q28 59 94 59q24 0 45.5 -9.5t37.5 -25.5t25.5 -37.5t9.5 -46.5q0 -32 -15 -63.5t-44 -58.5l-41 -38q-41 -39 -41 -77q0 -32 23.5 -52.5t59.5 -20.5q31 0 53 12.5t48 44.5z" />
    <glyph glyph-name="Agrave" unicode="&#xc0;" horiz-adv-x="646" 
d="M-7 0q17 7 28.5 14t20 16t15.5 22t15 32l248 613l277 -633q6 -14 11.5 -23t13 -15.5t18 -12.5t25.5 -13h-220q41 16 41 42q0 13 -9 34l-75 187h-179l-74 -201q-5 -13 -5 -24q0 -13 6.5 -21.5t22.5 -16.5h-180zM376 332l-65 159l-62 -159h127zM156 759q9 16 14 27
t9.5 20.5t9 20t11.5 27.5q27 -26 45 -43t34.5 -32.5t36.5 -33.5t51 -45q-40 13 -65.5 21t-47 14t-43.5 11t-55 13z" />
    <glyph glyph-name="Aacute" unicode="&#xc1;" horiz-adv-x="646" 
d="M-7 0q17 7 28.5 14t20 16t15.5 22t15 32l248 613l277 -633q6 -14 11.5 -23t13 -15.5t18 -12.5t25.5 -13h-220q41 16 41 42q0 13 -9 34l-75 187h-179l-74 -201q-5 -13 -5 -24q0 -13 6.5 -21.5t22.5 -16.5h-180zM376 332l-65 159l-62 -159h127zM489 759q-33 -8 -55 -13
t-43.5 -11t-47 -14t-65.5 -21q31 27 51 45t36.5 33.5t34.5 32.5t45 43q7 -17 11.5 -27.5t9 -20t9.5 -20.5t14 -27z" />
    <glyph glyph-name="Acircumflex" unicode="&#xc2;" horiz-adv-x="646" 
d="M-7 0q17 7 28.5 14t20 16t15.5 22t15 32l248 613l277 -633q6 -14 11.5 -23t13 -15.5t18 -12.5t25.5 -13h-220q41 16 41 42q0 13 -9 34l-75 187h-179l-74 -201q-5 -13 -5 -24q0 -13 6.5 -21.5t22.5 -16.5h-180zM376 332l-65 159l-62 -159h127zM317 852l50 -40t39.5 -31
t42 -32t58.5 -43q-34 9 -56 14.5t-41 10.5t-40 11t-53 15q-29 -9 -48.5 -15t-37.5 -11t-39 -10.5t-54 -14.5q31 25 51.5 41.5t38.5 31t38 31t51 42.5z" />
    <glyph glyph-name="Atilde" unicode="&#xc3;" horiz-adv-x="646" 
d="M-7 0q17 7 28.5 14t20 16t15.5 22t15 32l248 613l277 -633q6 -14 11.5 -23t13 -15.5t18 -12.5t25.5 -13h-220q41 16 41 42q0 13 -9 34l-75 187h-179l-74 -201q-5 -13 -5 -24q0 -13 6.5 -21.5t22.5 -16.5h-180zM376 332l-65 159l-62 -159h127zM500 866q-11 -30 -18.5 -50
t-15.5 -31q-21 -35 -68 -35q-6 0 -12 0.5t-14.5 1t-20.5 2.5t-31 5q-26 4 -42.5 6t-27 3.5t-18 2t-14.5 0.5q-19 0 -36 -6t-37 -20q11 27 18 44t13 27q8 14 24 22t34 8q10 0 27.5 -2.5l52.5 -7.5q17 -3 29 -4.5t21 -2.5t16.5 -1.5t15.5 -0.5q35 0 59.5 9t44.5 30z" />
    <glyph glyph-name="Adieresis" unicode="&#xc4;" horiz-adv-x="646" 
d="M-7 0q17 7 28.5 14t20 16t15.5 22t15 32l248 613l277 -633q6 -14 11.5 -23t13 -15.5t18 -12.5t25.5 -13h-220q41 16 41 42q0 13 -9 34l-75 187h-179l-74 -201q-5 -13 -5 -24q0 -13 6.5 -21.5t22.5 -16.5h-180zM376 332l-65 159l-62 -159h127zM422 839q26 0 44 -19.5
t18 -45.5t-18.5 -44t-44.5 -18t-45 18.5t-19 44.5t19.5 45t45.5 19zM227 839q26 0 44 -19.5t18 -45.5t-18.5 -44t-44.5 -18t-45 18.5t-19 44.5t19.5 45t45.5 19z" />
    <glyph glyph-name="Aring" unicode="&#xc5;" horiz-adv-x="646" 
d="M-6 0q17 8 28 15.5t19 16.5t15 21.5t15 31.5l218 536q-38 11 -60 40t-22 67q0 23 9 43.5t24 35.5t35 24t43 9t43.5 -9t35.5 -24t24 -35.5t9 -43.5q0 -38 -21 -66.5t-59 -40.5l247 -557q6 -13 11.5 -22t13 -15.5t17.5 -13t26 -13.5h-220q40 16 40 44q0 12 -8 33l-75 187
h-179l-76 -201q-4 -11 -4 -23q0 -14 6.5 -23t23.5 -17h-179zM375 333l-65 159l-61 -159h126zM317 792q-26 0 -44 -18.5t-18 -44.5t18.5 -44.5t44.5 -18.5t44.5 18.5t18.5 45.5q0 26 -18.5 44t-45.5 18z" />
    <glyph glyph-name="AE" unicode="&#xc6;" horiz-adv-x="900" 
d="M-40 0q14 5 24 9.5t18.5 10.5t16 14t16.5 20l412 563q8 11 11.5 18t3.5 12q0 14 -25 20h354q23 0 35 6.5t27 26.5v-182q-17 47 -43 65t-77 18h-135v-208h120q23 0 40 2.5t29 9.5t21 17.5t17 27.5v-191q-7 17 -12.5 25t-13.5 15q-6 5 -11 7.5t-12.5 4t-20.5 2t-35 0.5
h-122v-165q0 -40 11.5 -54.5t43.5 -14.5h91q57 0 89.5 24t53.5 81q-5 -36 -8 -59t-4.5 -41.5t-3 -37.5t-2.5 -46h-432q21 8 34 15t19.5 17t8.5 25t2 39v217h-189l-153 -223q-17 -26 -23 -37.5t-6 -22.5q0 -22 38 -30h-208zM501 380v199l-141 -199h141z" />
    <glyph glyph-name="Ccedilla" unicode="&#xc7;" horiz-adv-x="648" 
d="M277 -147q27 -24 61 -24q20 0 32 9t12 24q0 16 -12.5 26t-31.5 10q-12 0 -23.5 -3.5t-28.5 -12.5l33 110q-28 5 -48 11t-41 16q-45 21 -81.5 53.5t-62 74t-39.5 90t-14 99.5q0 75 27 138t75 109t114 71.5t144 25.5q35 0 71 -3t81 -10q7 -1 13 -1.5t11 -0.5q11 0 19 4.5
t17 17.5v-160q-19 26 -34.5 39.5t-43.5 25.5q-55 23 -115 23q-59 0 -106.5 -19.5t-82 -55.5t-53 -86.5t-18.5 -111.5q0 -63 18 -113.5t52 -86.5t81.5 -55t107.5 -19q75 0 140 34q15 7 25 13.5t18.5 13.5t16.5 16t17 21l-13 -139q-38 -12 -67.5 -19.5t-55 -12t-50 -6.5
t-51.5 -2h-26l-16 -53q6 2 9.5 2h8.5q32 0 54.5 -21.5t22.5 -52.5q0 -36 -27.5 -58.5t-71.5 -22.5q-19 0 -34.5 3t-33.5 10v59z" />
    <glyph glyph-name="Egrave" unicode="&#xc8;" horiz-adv-x="505" 
d="M35 0q21 8 33 15t19 17.5t9 25.5t2 39v473q0 24 -2 39t-9 25.5t-19 17.5t-33 15h353q24 0 35.5 6.5t27.5 26.5v-182q-9 24 -20 39.5t-25 25.5t-32 14t-43 4h-136v-207h120q46 0 69 12.5t38 44.5v-193q-7 17 -12.5 25t-14.5 15q-6 5 -11.5 8t-14 4.5t-20.5 2t-32 0.5h-122
v-165q0 -40 11 -54.5t43 -14.5h91q58 0 91 24.5t53 82.5q-5 -36 -8 -59.5t-5 -42.5t-3 -38t-2 -46h-431zM85 759q9 16 14 27t9.5 20.5t9 20t11.5 27.5q27 -26 45 -43t34.5 -32.5t36.5 -33.5t51 -45q-40 13 -65.5 21t-47 14t-43.5 11t-55 13z" />
    <glyph glyph-name="Eacute" unicode="&#xc9;" horiz-adv-x="505" 
d="M35 0q21 8 33 15t19 17.5t9 25.5t2 39v473q0 24 -2 39t-9 25.5t-19 17.5t-33 15h353q24 0 35.5 6.5t27.5 26.5v-182q-9 24 -20 39.5t-25 25.5t-32 14t-43 4h-136v-207h120q46 0 69 12.5t38 44.5v-193q-7 17 -12.5 25t-14.5 15q-6 5 -11.5 8t-14 4.5t-20.5 2t-32 0.5h-122
v-165q0 -40 11 -54.5t43 -14.5h91q58 0 91 24.5t53 82.5q-5 -36 -8 -59.5t-5 -42.5t-3 -38t-2 -46h-431zM418 759q-33 -8 -55 -13t-43.5 -11t-47 -14t-65.5 -21q31 27 51 45t36.5 33.5t34.5 32.5t45 43q7 -17 11.5 -27.5t9 -20t9.5 -20.5t14 -27z" />
    <glyph glyph-name="Ecircumflex" unicode="&#xca;" horiz-adv-x="505" 
d="M35 0q21 8 33 15t19 17.5t9 25.5t2 39v473q0 24 -2 39t-9 25.5t-19 17.5t-33 15h353q24 0 35.5 6.5t27.5 26.5v-182q-9 24 -20 39.5t-25 25.5t-32 14t-43 4h-136v-207h120q46 0 69 12.5t38 44.5v-193q-7 17 -12.5 25t-14.5 15q-6 5 -11.5 8t-14 4.5t-20.5 2t-32 0.5h-122
v-165q0 -40 11 -54.5t43 -14.5h91q58 0 91 24.5t53 82.5q-5 -36 -8 -59.5t-5 -42.5t-3 -38t-2 -46h-431zM246 852l50 -40t39.5 -31t42 -32t58.5 -43q-34 9 -56 14.5t-41 10.5t-40 11t-53 15q-29 -9 -48.5 -15t-37.5 -11t-39 -10.5t-54 -14.5q31 25 51.5 41.5t38.5 31t38 31
t51 42.5z" />
    <glyph glyph-name="Edieresis" unicode="&#xcb;" horiz-adv-x="505" 
d="M35 0q21 8 33 15t19 17.5t9 25.5t2 39v473q0 24 -2 39t-9 25.5t-19 17.5t-33 15h353q24 0 35.5 6.5t27.5 26.5v-182q-9 24 -20 39.5t-25 25.5t-32 14t-43 4h-136v-207h120q46 0 69 12.5t38 44.5v-193q-7 17 -12.5 25t-14.5 15q-6 5 -11.5 8t-14 4.5t-20.5 2t-32 0.5h-122
v-165q0 -40 11 -54.5t43 -14.5h91q58 0 91 24.5t53 82.5q-5 -36 -8 -59.5t-5 -42.5t-3 -38t-2 -46h-431zM351 839q26 0 44 -19.5t18 -45.5t-18.5 -44t-44.5 -18t-45 18.5t-19 44.5t19.5 45t45.5 19zM156 839q26 0 44 -19.5t18 -45.5t-18.5 -44t-44.5 -18t-45 18.5t-19 44.5
t19.5 45t45.5 19z" />
    <glyph glyph-name="Igrave" unicode="&#xcc;" horiz-adv-x="297" 
d="M35 0q21 8 33 15t19 17.5t9 25.5t2 39v473q0 24 -2 39t-9 25.5t-19 17.5t-33 15h225q-21 -8 -33 -15t-19 -17.5t-9 -25.5t-2 -39v-473q0 -24 2 -39t9 -25.5t19 -17.5t33 -15h-225zM-17 759q9 16 14 27t9.5 20.5t9 20t11.5 27.5q27 -26 45 -43t34.5 -32.5t36.5 -33.5
t51 -45q-40 13 -65.5 21t-47 14t-43.5 11t-55 13z" />
    <glyph glyph-name="Iacute" unicode="&#xcd;" horiz-adv-x="297" 
d="M35 0q21 8 33 15t19 17.5t9 25.5t2 39v473q0 24 -2 39t-9 25.5t-19 17.5t-33 15h225q-21 -8 -33 -15t-19 -17.5t-9 -25.5t-2 -39v-473q0 -24 2 -39t9 -25.5t19 -17.5t33 -15h-225zM316 759q-33 -8 -55 -13t-43.5 -11t-47 -14t-65.5 -21q31 27 51 45t36.5 33.5t34.5 32.5
t45 43q7 -17 11.5 -27.5t9 -20t9.5 -20.5t14 -27z" />
    <glyph glyph-name="Icircumflex" unicode="&#xce;" horiz-adv-x="297" 
d="M143 852q24 -24 40.5 -40t32 -31t34.5 -32t49 -43q-28 9 -46 14.5t-34 10.5t-33 11t-43 15q-24 -9 -39.5 -15t-30 -11t-32 -10.5t-44.5 -14.5q26 25 42.5 41.5l31 31l31 31t41.5 42.5zM35 0q21 8 33 15t19 17.5t9 25.5t2 39v473q0 24 -2 39t-9 25.5t-19 17.5t-33 15h225
q-21 -8 -33 -15t-19 -17.5t-9 -25.5t-2 -39v-473q0 -24 2 -39t9 -25.5t19 -17.5t33 -15h-225z" />
    <glyph glyph-name="Idieresis" unicode="&#xcf;" horiz-adv-x="297" 
d="M234 839q26 0 44 -19.5t18 -45.5t-18.5 -44t-44.5 -18t-45 18.5t-19 44.5t19.5 45t45.5 19zM65 839q26 0 44 -19.5t18 -45.5t-18.5 -44t-44.5 -18t-45 18.5t-19 44.5t19.5 45t45.5 19zM35 0q21 8 33 15t19 17.5t9 25.5t2 39v473q0 24 -2 39t-9 25.5t-19 17.5t-33 15h225
q-21 -8 -33 -15t-19 -17.5t-9 -25.5t-2 -39v-473q0 -24 2 -39t9 -25.5t19 -17.5t33 -15h-225z" />
    <glyph glyph-name="Eth" unicode="&#xd0;" horiz-adv-x="720" 
d="M35 0q21 8 33 15t19 17.5t9 25.5t2 39v209h-63v61h63v203q0 24 -2 39t-9 25.5t-19 17.5t-33 15h298q167 0 259 -89q46 -45 70 -105.5t24 -129.5q0 -43 -10 -84t-28 -77.5t-44.5 -67.5t-59.5 -53q-44 -29 -107 -45t-138 -16h-264zM311 78q57 0 104.5 19.5t81.5 54t53 83
t19 107.5t-18.5 106.5t-53 80.5t-84 50.5t-110.5 17.5h-105v-230h168v-61h-168v-165q0 -36 11.5 -49.5t43.5 -13.5h58z" />
    <glyph glyph-name="Ntilde" unicode="&#xd1;" horiz-adv-x="771" 
d="M177 527v-430q0 -24 2 -39t9 -25.5t19 -17.5t33 -15h-204q21 8 33 15t19 17.5t9 25.5t2 39v444q0 28 -3.5 48t-12.5 34t-24.5 24.5t-38.5 19.5h157l418 -454v353q0 27 -2 43.5t-8 27t-17 17.5t-30 13h193q-19 -6 -30 -13t-17 -17.5t-8 -27t-2 -43.5v-583zM562 866
q-11 -30 -18.5 -50t-15.5 -31q-21 -35 -68 -35q-6 0 -12 0.5t-14.5 1t-20.5 2.5t-31 5q-26 4 -42.5 6t-27 3.5t-18 2t-14.5 0.5q-19 0 -36 -6t-37 -20q11 27 18 44t13 27q8 14 24 22t34 8q10 0 27.5 -2.5l52.5 -7.5q17 -3 29 -4.5t21 -2.5t16.5 -1.5t15.5 -0.5q35 0 59.5 9
t44.5 30z" />
    <glyph glyph-name="Ograve" unicode="&#xd2;" horiz-adv-x="732" 
d="M371 680q72 0 132 -25t103.5 -70.5t68 -108.5t24.5 -138q0 -74 -25.5 -138.5t-70.5 -111.5t-106 -74t-132 -27t-132 27t-105.5 74.5t-70 112.5t-25.5 140q0 81 31.5 152t86.5 117q42 34 98.5 52t122.5 18zM367 606q-48 0 -88.5 -20.5t-70.5 -56.5t-47 -85.5t-17 -107.5
q0 -59 17 -109.5t46 -88t69 -59t87 -21.5q54 0 103.5 29t79.5 80q20 32 30.5 76.5t10.5 94.5q0 61 -16 110.5t-44.5 84.5t-69.5 54t-90 19zM199 759q9 16 14 27t9.5 20.5t9 20t11.5 27.5q27 -26 45 -43t34.5 -32.5t36.5 -33.5t51 -45q-40 13 -65.5 21t-47 14t-43.5 11
t-55 13z" />
    <glyph glyph-name="Oacute" unicode="&#xd3;" horiz-adv-x="732" 
d="M371 680q72 0 132 -25t103.5 -70.5t68 -108.5t24.5 -138q0 -74 -25.5 -138.5t-70.5 -111.5t-106 -74t-132 -27t-132 27t-105.5 74.5t-70 112.5t-25.5 140q0 81 31.5 152t86.5 117q42 34 98.5 52t122.5 18zM367 606q-48 0 -88.5 -20.5t-70.5 -56.5t-47 -85.5t-17 -107.5
q0 -59 17 -109.5t46 -88t69 -59t87 -21.5q54 0 103.5 29t79.5 80q20 32 30.5 76.5t10.5 94.5q0 61 -16 110.5t-44.5 84.5t-69.5 54t-90 19zM532 759q-33 -8 -55 -13t-43.5 -11t-47 -14t-65.5 -21q31 27 51 45t36.5 33.5t34.5 32.5t45 43q7 -17 11.5 -27.5t9 -20t9.5 -20.5
t14 -27z" />
    <glyph glyph-name="Ocircumflex" unicode="&#xd4;" horiz-adv-x="732" 
d="M371 680q72 0 132 -25t103.5 -70.5t68 -108.5t24.5 -138q0 -74 -25.5 -138.5t-70.5 -111.5t-106 -74t-132 -27t-132 27t-105.5 74.5t-70 112.5t-25.5 140q0 81 31.5 152t86.5 117q42 34 98.5 52t122.5 18zM367 606q-48 0 -88.5 -20.5t-70.5 -56.5t-47 -85.5t-17 -107.5
q0 -59 17 -109.5t46 -88t69 -59t87 -21.5q54 0 103.5 29t79.5 80q20 32 30.5 76.5t10.5 94.5q0 61 -16 110.5t-44.5 84.5t-69.5 54t-90 19zM360 852l50 -40t39.5 -31t42 -32t58.5 -43q-34 9 -56 14.5t-41 10.5t-40 11t-53 15q-29 -9 -48.5 -15t-37.5 -11t-39 -10.5
t-54 -14.5q31 25 51.5 41.5t38.5 31t38 31t51 42.5z" />
    <glyph glyph-name="Otilde" unicode="&#xd5;" horiz-adv-x="732" 
d="M371 680q72 0 132 -25t103.5 -70.5t68 -108.5t24.5 -138q0 -74 -25.5 -138.5t-70.5 -111.5t-106 -74t-132 -27t-132 27t-105.5 74.5t-70 112.5t-25.5 140q0 81 31.5 152t86.5 117q42 34 98.5 52t122.5 18zM367 606q-48 0 -88.5 -20.5t-70.5 -56.5t-47 -85.5t-17 -107.5
q0 -59 17 -109.5t46 -88t69 -59t87 -21.5q54 0 103.5 29t79.5 80q20 32 30.5 76.5t10.5 94.5q0 61 -16 110.5t-44.5 84.5t-69.5 54t-90 19zM543 866q-11 -30 -18.5 -50t-15.5 -31q-21 -35 -68 -35q-6 0 -12 0.5t-14.5 1t-20.5 2.5t-31 5q-26 4 -42.5 6t-27 3.5t-18 2
t-14.5 0.5q-19 0 -36 -6t-37 -20q11 27 18 44t13 27q8 14 24 22t34 8q10 0 27.5 -2.5l52.5 -7.5q17 -3 29 -4.5t21 -2.5t16.5 -1.5t15.5 -0.5q35 0 59.5 9t44.5 30z" />
    <glyph glyph-name="Odieresis" unicode="&#xd6;" horiz-adv-x="732" 
d="M371 680q72 0 132 -25t103.5 -70.5t68 -108.5t24.5 -138q0 -74 -25.5 -138.5t-70.5 -111.5t-106 -74t-132 -27t-132 27t-105.5 74.5t-70 112.5t-25.5 140q0 81 31.5 152t86.5 117q42 34 98.5 52t122.5 18zM367 606q-48 0 -88.5 -20.5t-70.5 -56.5t-47 -85.5t-17 -107.5
q0 -59 17 -109.5t46 -88t69 -59t87 -21.5q54 0 103.5 29t79.5 80q20 32 30.5 76.5t10.5 94.5q0 61 -16 110.5t-44.5 84.5t-69.5 54t-90 19zM465 839q26 0 44 -19.5t18 -45.5t-18.5 -44t-44.5 -18t-45 18.5t-19 44.5t19.5 45t45.5 19zM270 839q26 0 44 -19.5t18 -45.5
t-18.5 -44t-44.5 -18t-45 18.5t-19 44.5t19.5 45t45.5 19z" />
    <glyph glyph-name="multiply" unicode="&#xd7;" 
d="M264 283q-25 -26 -41 -42.5t-29 -31t-26 -30t-31 -37.5q-11 13 -18 21t-13.5 15t-14.5 14t-21 18q22 18 37.5 31t30 26t31.5 29t42 41q-25 24 -42 40t-31.5 29.5t-30 26.5t-37.5 31q13 10 21 17t14.5 14t13.5 15t18 21q18 -22 31 -37.5t26 -30t29 -31.5t41 -42
q23 23 39 39.5t29.5 31.5t27 31t31.5 39q11 -13 18 -21t14 -15t15 -14t21 -17q-23 -18 -38 -31t-29.5 -26.5t-31.5 -29.5t-42 -40q25 -25 42 -41t31.5 -29t29.5 -26t38 -31q-13 -11 -21 -18t-15 -14t-14 -15t-18 -21q-18 23 -32 39t-27.5 31t-29 31.5t-38.5 39.5z" />
    <glyph glyph-name="Oslash" unicode="&#xd8;" horiz-adv-x="731" 
d="M73 -21l69 94q-110 105 -110 264q0 81 31.5 153.5t86.5 118.5q41 34 96.5 52t118.5 18q51 0 91.5 -10t87.5 -33l61 86l48 -36l-61 -86q52 -48 79 -115.5t27 -146.5q0 -75 -25.5 -139.5t-70.5 -112t-105.5 -74.5t-130.5 -27q-48 0 -87.5 11.5t-88.5 40.5l-66 -93zM493 565
q-30 22 -58 31t-63 9q-50 0 -92 -20t-72 -55.5t-47 -85t-17 -108.5q0 -104 53 -185zM238 105q32 -26 58.5 -37t61.5 -11q56 0 106.5 29t82.5 79q19 32 29.5 75t10.5 91q0 59 -11.5 102.5t-39.5 88.5z" />
    <glyph glyph-name="Ugrave" unicode="&#xd9;" horiz-adv-x="689" 
d="M518 570q0 24 -2 39t-9 25.5t-19 17.5t-33 15h211q-21 -8 -33 -15t-19 -17.5t-9 -25.5t-2 -39v-306q0 -78 -15.5 -129t-49.5 -83q-32 -32 -86 -49t-124 -17q-65 0 -114 18t-79 53q-26 29 -38 77t-12 122v314q0 24 -2 39t-9 25.5t-19 17.5t-33 15h227q-21 -8 -33 -15
t-19 -17.5t-9 -25.5t-2 -39v-329q0 -55 8.5 -85t31.5 -51q20 -18 51.5 -28t69.5 -10q54 0 92 17.5t57 50.5q22 38 22 120v315zM177 759q9 16 14 27t9.5 20.5t9 20t11.5 27.5q27 -26 45 -43t34.5 -32.5t36.5 -33.5t51 -45q-40 13 -65.5 21t-47 14t-43.5 11t-55 13z" />
    <glyph glyph-name="Uacute" unicode="&#xda;" horiz-adv-x="689" 
d="M518 570q0 24 -2 39t-9 25.5t-19 17.5t-33 15h211q-21 -8 -33 -15t-19 -17.5t-9 -25.5t-2 -39v-306q0 -78 -15.5 -129t-49.5 -83q-32 -32 -86 -49t-124 -17q-65 0 -114 18t-79 53q-26 29 -38 77t-12 122v314q0 24 -2 39t-9 25.5t-19 17.5t-33 15h227q-21 -8 -33 -15
t-19 -17.5t-9 -25.5t-2 -39v-329q0 -55 8.5 -85t31.5 -51q20 -18 51.5 -28t69.5 -10q54 0 92 17.5t57 50.5q22 38 22 120v315zM510 759q-33 -8 -55 -13t-43.5 -11t-47 -14t-65.5 -21q31 27 51 45t36.5 33.5t34.5 32.5t45 43q7 -17 11.5 -27.5t9 -20t9.5 -20.5t14 -27z" />
    <glyph glyph-name="Ucircumflex" unicode="&#xdb;" horiz-adv-x="689" 
d="M518 570q0 24 -2 39t-9 25.5t-19 17.5t-33 15h211q-21 -8 -33 -15t-19 -17.5t-9 -25.5t-2 -39v-306q0 -78 -15.5 -129t-49.5 -83q-32 -32 -86 -49t-124 -17q-65 0 -114 18t-79 53q-26 29 -38 77t-12 122v314q0 24 -2 39t-9 25.5t-19 17.5t-33 15h227q-21 -8 -33 -15
t-19 -17.5t-9 -25.5t-2 -39v-329q0 -55 8.5 -85t31.5 -51q20 -18 51.5 -28t69.5 -10q54 0 92 17.5t57 50.5q22 38 22 120v315zM338 852l50 -40t39.5 -31t42 -32t58.5 -43q-34 9 -56 14.5t-41 10.5t-40 11t-53 15q-29 -9 -48.5 -15t-37.5 -11t-39 -10.5t-54 -14.5
q31 25 51.5 41.5t38.5 31t38 31t51 42.5z" />
    <glyph glyph-name="Udieresis" unicode="&#xdc;" horiz-adv-x="689" 
d="M518 570q0 24 -2 39t-9 25.5t-19 17.5t-33 15h211q-21 -8 -33 -15t-19 -17.5t-9 -25.5t-2 -39v-306q0 -78 -15.5 -129t-49.5 -83q-32 -32 -86 -49t-124 -17q-65 0 -114 18t-79 53q-26 29 -38 77t-12 122v314q0 24 -2 39t-9 25.5t-19 17.5t-33 15h227q-21 -8 -33 -15
t-19 -17.5t-9 -25.5t-2 -39v-329q0 -55 8.5 -85t31.5 -51q20 -18 51.5 -28t69.5 -10q54 0 92 17.5t57 50.5q22 38 22 120v315zM443 839q26 0 44 -19.5t18 -45.5t-18.5 -44t-44.5 -18t-45 18.5t-19 44.5t19.5 45t45.5 19zM248 839q26 0 44 -19.5t18 -45.5t-18.5 -44
t-44.5 -18t-45 18.5t-19 44.5t19.5 45t45.5 19z" />
    <glyph glyph-name="Yacute" unicode="&#xdd;" horiz-adv-x="623" 
d="M200 0q21 8 33 15t19 17.5t9 25.5t2 39v198l-177 275q-20 31 -31.5 48.5t-22 27t-22 13.5t-30.5 8h235q-37 -13 -37 -38q0 -8 3.5 -17t13.5 -25l131 -209l136 224q5 8 7.5 15.5t2.5 13.5q0 24 -38 36h209q-19 -6 -31.5 -11.5t-23 -14.5t-21 -24t-25.5 -39l-175 -283v-198
q0 -24 2 -39t9 -25.5t19 -17.5t33 -15h-230zM484 759q-33 -8 -55 -13t-43.5 -11t-47 -14t-65.5 -21q31 27 51 45t36.5 33.5t34.5 32.5t45 43q7 -17 11.5 -27.5t9 -20t9.5 -20.5t14 -27z" />
    <glyph glyph-name="Thorn" unicode="&#xde;" horiz-adv-x="533" 
d="M35 0q21 8 33 15t19 17.5t9 25.5t2 39v473q0 24 -2 39t-9 25.5t-19 17.5t-33 15h224q-21 -8 -33 -15t-19 -17.5t-9 -25.5t-2 -39v-37h90q64 0 104 -12.5t67 -41.5q49 -51 49 -125q0 -40 -15.5 -75t-42 -61.5t-62.5 -41.5t-77 -15q-33 0 -56 9.5t-45 32.5q31 -9 50 -9
q25 0 50 12.5t44 33t31 47t12 53.5q0 29 -15 56t-40 44q-35 22 -97 22h-47v-365q0 -24 2 -39t9 -25.5t19 -17.5t33 -15h-224z" />
    <glyph glyph-name="germandbls" unicode="&#xdf;" horiz-adv-x="869" 
d="M35 154q38 -42 78 -64t81 -22q23 0 44 8.5t36.5 23.5t25 34.5t9.5 41.5q0 69 -90 127l-68 44q-104 66 -104 167q0 36 14 66.5t39.5 52.5t60.5 34.5t77 12.5q11 0 18.5 -0.5t16.5 -2t23 -5t39 -10.5q12 -3 18 -3q13 0 29 16l7 -159q-12 23 -21 34t-21 22
q-23 19 -51.5 29.5t-58.5 10.5q-40 0 -67 -24.5t-27 -60.5q0 -26 14 -43.5t53 -43.5l83 -56q55 -37 84 -85t29 -105q0 -44 -17.5 -82t-47.5 -65.5t-71 -43.5t-89 -16q-16 0 -29.5 1t-29.5 4.5t-36.5 9.5t-50.5 15v137zM470 154q77 -86 159 -86q23 0 44 8.5t36.5 23.5
t25 34.5t9.5 41.5q0 69 -90 127l-68 44q-104 66 -104 167q0 36 14 66.5t39.5 52.5t60.5 34.5t77 12.5q11 0 18.5 -0.5t16.5 -2t23 -5t39 -10.5q12 -3 18 -3q13 0 29 16l7 -159q-12 23 -21 34t-21 22q-23 19 -51.5 29.5t-58.5 10.5q-40 0 -67 -24.5t-27 -60.5q0 -26 14 -43.5
t53 -43.5l83 -56q55 -37 84 -85t29 -105q0 -44 -17.5 -82t-47.5 -65.5t-71 -43.5t-89 -16q-16 0 -29.5 1t-29.5 4.5t-36.5 9.5t-50.5 15v137z" />
    <glyph glyph-name="agrave" unicode="&#xe0;" horiz-adv-x="646" 
d="M-7 0q17 7 28.5 14t20 16t15.5 22t15 32l248 613l277 -633q6 -14 11.5 -23t13 -15.5t18 -12.5t25.5 -13h-220q41 16 41 42q0 13 -9 34l-75 187h-179l-74 -201q-5 -13 -5 -24q0 -13 6.5 -21.5t22.5 -16.5h-180zM376 332l-65 159l-62 -159h127zM156 759q9 16 14 27
t9.5 20.5t9 20t11.5 27.5q27 -26 45 -43t34.5 -32.5t36.5 -33.5t51 -45q-40 13 -65.5 21t-47 14t-43.5 11t-55 13z" />
    <glyph glyph-name="aacute" unicode="&#xe1;" horiz-adv-x="646" 
d="M-7 0q17 7 28.5 14t20 16t15.5 22t15 32l248 613l277 -633q6 -14 11.5 -23t13 -15.5t18 -12.5t25.5 -13h-220q41 16 41 42q0 13 -9 34l-75 187h-179l-74 -201q-5 -13 -5 -24q0 -13 6.5 -21.5t22.5 -16.5h-180zM376 332l-65 159l-62 -159h127zM489 759q-33 -8 -55 -13
t-43.5 -11t-47 -14t-65.5 -21q31 27 51 45t36.5 33.5t34.5 32.5t45 43q7 -17 11.5 -27.5t9 -20t9.5 -20.5t14 -27z" />
    <glyph glyph-name="acircumflex" unicode="&#xe2;" horiz-adv-x="646" 
d="M-7 0q17 7 28.5 14t20 16t15.5 22t15 32l248 613l277 -633q6 -14 11.5 -23t13 -15.5t18 -12.5t25.5 -13h-220q41 16 41 42q0 13 -9 34l-75 187h-179l-74 -201q-5 -13 -5 -24q0 -13 6.5 -21.5t22.5 -16.5h-180zM376 332l-65 159l-62 -159h127zM317 852l50 -40t39.5 -31
t42 -32t58.5 -43q-34 9 -56 14.5t-41 10.5t-40 11t-53 15q-29 -9 -48.5 -15t-37.5 -11t-39 -10.5t-54 -14.5q31 25 51.5 41.5t38.5 31t38 31t51 42.5z" />
    <glyph glyph-name="atilde" unicode="&#xe3;" horiz-adv-x="646" 
d="M-7 0q17 7 28.5 14t20 16t15.5 22t15 32l248 613l277 -633q6 -14 11.5 -23t13 -15.5t18 -12.5t25.5 -13h-220q41 16 41 42q0 13 -9 34l-75 187h-179l-74 -201q-5 -13 -5 -24q0 -13 6.5 -21.5t22.5 -16.5h-180zM376 332l-65 159l-62 -159h127zM500 866q-11 -30 -18.5 -50
t-15.5 -31q-21 -35 -68 -35q-6 0 -12 0.5t-14.5 1t-20.5 2.5t-31 5q-26 4 -42.5 6t-27 3.5t-18 2t-14.5 0.5q-19 0 -36 -6t-37 -20q11 27 18 44t13 27q8 14 24 22t34 8q10 0 27.5 -2.5l52.5 -7.5q17 -3 29 -4.5t21 -2.5t16.5 -1.5t15.5 -0.5q35 0 59.5 9t44.5 30z" />
    <glyph glyph-name="adieresis" unicode="&#xe4;" horiz-adv-x="646" 
d="M-7 0q17 7 28.5 14t20 16t15.5 22t15 32l248 613l277 -633q6 -14 11.5 -23t13 -15.5t18 -12.5t25.5 -13h-220q41 16 41 42q0 13 -9 34l-75 187h-179l-74 -201q-5 -13 -5 -24q0 -13 6.5 -21.5t22.5 -16.5h-180zM376 332l-65 159l-62 -159h127zM422 839q26 0 44 -19.5
t18 -45.5t-18.5 -44t-44.5 -18t-45 18.5t-19 44.5t19.5 45t45.5 19zM227 839q26 0 44 -19.5t18 -45.5t-18.5 -44t-44.5 -18t-45 18.5t-19 44.5t19.5 45t45.5 19z" />
    <glyph glyph-name="aring" unicode="&#xe5;" horiz-adv-x="646" 
d="M-6 0q17 8 28 15.5t19 16.5t15 21.5t15 31.5l218 536q-38 11 -60 40t-22 67q0 23 9 43.5t24 35.5t35 24t43 9t43.5 -9t35.5 -24t24 -35.5t9 -43.5q0 -38 -21 -66.5t-59 -40.5l247 -557q6 -13 11.5 -22t13 -15.5t17.5 -13t26 -13.5h-220q40 16 40 44q0 12 -8 33l-75 187
h-179l-76 -201q-4 -11 -4 -23q0 -14 6.5 -23t23.5 -17h-179zM375 333l-65 159l-61 -159h126zM317 792q-26 0 -44 -18.5t-18 -44.5t18.5 -44.5t44.5 -18.5t44.5 18.5t18.5 45.5q0 26 -18.5 44t-45.5 18z" />
    <glyph glyph-name="ae" unicode="&#xe6;" horiz-adv-x="900" 
d="M-40 0q14 5 24 9.5t18.5 10.5t16 14t16.5 20l412 563q8 11 11.5 18t3.5 12q0 14 -25 20h354q23 0 35 6.5t27 26.5v-182q-17 47 -43 65t-77 18h-135v-208h120q23 0 40 2.5t29 9.5t21 17.5t17 27.5v-191q-7 17 -12.5 25t-13.5 15q-6 5 -11 7.5t-12.5 4t-20.5 2t-35 0.5
h-122v-165q0 -40 11.5 -54.5t43.5 -14.5h91q57 0 89.5 24t53.5 81q-5 -36 -8 -59t-4.5 -41.5t-3 -37.5t-2.5 -46h-432q21 8 34 15t19.5 17t8.5 25t2 39v217h-189l-153 -223q-17 -26 -23 -37.5t-6 -22.5q0 -22 38 -30h-208zM501 380v199l-141 -199h141z" />
    <glyph glyph-name="ccedilla" unicode="&#xe7;" horiz-adv-x="648" 
d="M277 -147q27 -24 61 -24q20 0 32 9t12 24q0 16 -12.5 26t-31.5 10q-12 0 -23.5 -3.5t-28.5 -12.5l33 110q-28 5 -48 11t-41 16q-45 21 -81.5 53.5t-62 74t-39.5 90t-14 99.5q0 75 27 138t75 109t114 71.5t144 25.5q35 0 71 -3t81 -10q7 -1 13 -1.5t11 -0.5q11 0 19 4.5
t17 17.5v-160q-19 26 -34.5 39.5t-43.5 25.5q-55 23 -115 23q-59 0 -106.5 -19.5t-82 -55.5t-53 -86.5t-18.5 -111.5q0 -63 18 -113.5t52 -86.5t81.5 -55t107.5 -19q75 0 140 34q15 7 25 13.5t18.5 13.5t16.5 16t17 21l-13 -139q-38 -12 -67.5 -19.5t-55 -12t-50 -6.5
t-51.5 -2h-26l-16 -53q6 2 9.5 2h8.5q32 0 54.5 -21.5t22.5 -52.5q0 -36 -27.5 -58.5t-71.5 -22.5q-19 0 -34.5 3t-33.5 10v59z" />
    <glyph glyph-name="egrave" unicode="&#xe8;" horiz-adv-x="505" 
d="M35 0q21 8 33 15t19 17.5t9 25.5t2 39v473q0 24 -2 39t-9 25.5t-19 17.5t-33 15h353q24 0 35.5 6.5t27.5 26.5v-182q-9 24 -20 39.5t-25 25.5t-32 14t-43 4h-136v-207h120q46 0 69 12.5t38 44.5v-193q-7 17 -12.5 25t-14.5 15q-6 5 -11.5 8t-14 4.5t-20.5 2t-32 0.5h-122
v-165q0 -40 11 -54.5t43 -14.5h91q58 0 91 24.5t53 82.5q-5 -36 -8 -59.5t-5 -42.5t-3 -38t-2 -46h-431zM85 759q9 16 14 27t9.5 20.5t9 20t11.5 27.5q27 -26 45 -43t34.5 -32.5t36.5 -33.5t51 -45q-40 13 -65.5 21t-47 14t-43.5 11t-55 13z" />
    <glyph glyph-name="eacute" unicode="&#xe9;" horiz-adv-x="505" 
d="M35 0q21 8 33 15t19 17.5t9 25.5t2 39v473q0 24 -2 39t-9 25.5t-19 17.5t-33 15h353q24 0 35.5 6.5t27.5 26.5v-182q-9 24 -20 39.5t-25 25.5t-32 14t-43 4h-136v-207h120q46 0 69 12.5t38 44.5v-193q-7 17 -12.5 25t-14.5 15q-6 5 -11.5 8t-14 4.5t-20.5 2t-32 0.5h-122
v-165q0 -40 11 -54.5t43 -14.5h91q58 0 91 24.5t53 82.5q-5 -36 -8 -59.5t-5 -42.5t-3 -38t-2 -46h-431zM418 759q-33 -8 -55 -13t-43.5 -11t-47 -14t-65.5 -21q31 27 51 45t36.5 33.5t34.5 32.5t45 43q7 -17 11.5 -27.5t9 -20t9.5 -20.5t14 -27z" />
    <glyph glyph-name="ecircumflex" unicode="&#xea;" horiz-adv-x="505" 
d="M35 0q21 8 33 15t19 17.5t9 25.5t2 39v473q0 24 -2 39t-9 25.5t-19 17.5t-33 15h353q24 0 35.5 6.5t27.5 26.5v-182q-9 24 -20 39.5t-25 25.5t-32 14t-43 4h-136v-207h120q46 0 69 12.5t38 44.5v-193q-7 17 -12.5 25t-14.5 15q-6 5 -11.5 8t-14 4.5t-20.5 2t-32 0.5h-122
v-165q0 -40 11 -54.5t43 -14.5h91q58 0 91 24.5t53 82.5q-5 -36 -8 -59.5t-5 -42.5t-3 -38t-2 -46h-431zM246 852l50 -40t39.5 -31t42 -32t58.5 -43q-34 9 -56 14.5t-41 10.5t-40 11t-53 15q-29 -9 -48.5 -15t-37.5 -11t-39 -10.5t-54 -14.5q31 25 51.5 41.5t38.5 31t38 31
t51 42.5z" />
    <glyph glyph-name="edieresis" unicode="&#xeb;" horiz-adv-x="505" 
d="M35 0q21 8 33 15t19 17.5t9 25.5t2 39v473q0 24 -2 39t-9 25.5t-19 17.5t-33 15h353q24 0 35.5 6.5t27.5 26.5v-182q-9 24 -20 39.5t-25 25.5t-32 14t-43 4h-136v-207h120q46 0 69 12.5t38 44.5v-193q-7 17 -12.5 25t-14.5 15q-6 5 -11.5 8t-14 4.5t-20.5 2t-32 0.5h-122
v-165q0 -40 11 -54.5t43 -14.5h91q58 0 91 24.5t53 82.5q-5 -36 -8 -59.5t-5 -42.5t-3 -38t-2 -46h-431zM351 839q26 0 44 -19.5t18 -45.5t-18.5 -44t-44.5 -18t-45 18.5t-19 44.5t19.5 45t45.5 19zM156 839q26 0 44 -19.5t18 -45.5t-18.5 -44t-44.5 -18t-45 18.5t-19 44.5
t19.5 45t45.5 19z" />
    <glyph glyph-name="igrave" unicode="&#xec;" horiz-adv-x="297" 
d="M35 0q21 8 33 15t19 17.5t9 25.5t2 39v473q0 24 -2 39t-9 25.5t-19 17.5t-33 15h225q-21 -8 -33 -15t-19 -17.5t-9 -25.5t-2 -39v-473q0 -24 2 -39t9 -25.5t19 -17.5t33 -15h-225zM-17 759q9 16 14 27t9.5 20.5t9 20t11.5 27.5q27 -26 45 -43t34.5 -32.5t36.5 -33.5
t51 -45q-40 13 -65.5 21t-47 14t-43.5 11t-55 13z" />
    <glyph glyph-name="iacute" unicode="&#xed;" horiz-adv-x="297" 
d="M35 0q21 8 33 15t19 17.5t9 25.5t2 39v473q0 24 -2 39t-9 25.5t-19 17.5t-33 15h225q-21 -8 -33 -15t-19 -17.5t-9 -25.5t-2 -39v-473q0 -24 2 -39t9 -25.5t19 -17.5t33 -15h-225zM316 759q-33 -8 -55 -13t-43.5 -11t-47 -14t-65.5 -21q31 27 51 45t36.5 33.5t34.5 32.5
t45 43q7 -17 11.5 -27.5t9 -20t9.5 -20.5t14 -27z" />
    <glyph glyph-name="icircumflex" unicode="&#xee;" horiz-adv-x="297" 
d="M143 852q24 -24 40.5 -40t32 -31t34.5 -32t49 -43q-28 9 -46 14.5t-34 10.5t-33 11t-43 15q-24 -9 -39.5 -15t-30 -11t-32 -10.5t-44.5 -14.5q26 25 42.5 41.5l31 31l31 31t41.5 42.5zM35 0q21 8 33 15t19 17.5t9 25.5t2 39v473q0 24 -2 39t-9 25.5t-19 17.5t-33 15h225
q-21 -8 -33 -15t-19 -17.5t-9 -25.5t-2 -39v-473q0 -24 2 -39t9 -25.5t19 -17.5t33 -15h-225z" />
    <glyph glyph-name="idieresis" unicode="&#xef;" horiz-adv-x="297" 
d="M234 839q26 0 44 -19.5t18 -45.5t-18.5 -44t-44.5 -18t-45 18.5t-19 44.5t19.5 45t45.5 19zM65 839q26 0 44 -19.5t18 -45.5t-18.5 -44t-44.5 -18t-45 18.5t-19 44.5t19.5 45t45.5 19zM35 0q21 8 33 15t19 17.5t9 25.5t2 39v473q0 24 -2 39t-9 25.5t-19 17.5t-33 15h225
q-21 -8 -33 -15t-19 -17.5t-9 -25.5t-2 -39v-473q0 -24 2 -39t9 -25.5t19 -17.5t33 -15h-225z" />
    <glyph glyph-name="eth" unicode="&#xf0;" horiz-adv-x="720" 
d="M35 0q21 8 33 15t19 17.5t9 25.5t2 39v209h-63v61h63v203q0 24 -2 39t-9 25.5t-19 17.5t-33 15h298q167 0 259 -89q46 -45 70 -105.5t24 -129.5q0 -43 -10 -84t-28 -77.5t-44.5 -67.5t-59.5 -53q-44 -29 -107 -45t-138 -16h-264zM311 78q57 0 104.5 19.5t81.5 54t53 83
t19 107.5t-18.5 106.5t-53 80.5t-84 50.5t-110.5 17.5h-105v-230h168v-61h-168v-165q0 -36 11.5 -49.5t43.5 -13.5h58z" />
    <glyph glyph-name="ntilde" unicode="&#xf1;" horiz-adv-x="771" 
d="M177 527v-430q0 -24 2 -39t9 -25.5t19 -17.5t33 -15h-204q21 8 33 15t19 17.5t9 25.5t2 39v444q0 28 -3.5 48t-12.5 34t-24.5 24.5t-38.5 19.5h157l418 -454v353q0 27 -2 43.5t-8 27t-17 17.5t-30 13h193q-19 -6 -30 -13t-17 -17.5t-8 -27t-2 -43.5v-583zM562 866
q-11 -30 -18.5 -50t-15.5 -31q-21 -35 -68 -35q-6 0 -12 0.5t-14.5 1t-20.5 2.5t-31 5q-26 4 -42.5 6t-27 3.5t-18 2t-14.5 0.5q-19 0 -36 -6t-37 -20q11 27 18 44t13 27q8 14 24 22t34 8q10 0 27.5 -2.5l52.5 -7.5q17 -3 29 -4.5t21 -2.5t16.5 -1.5t15.5 -0.5q35 0 59.5 9
t44.5 30z" />
    <glyph glyph-name="ograve" unicode="&#xf2;" horiz-adv-x="732" 
d="M371 680q72 0 132 -25t103.5 -70.5t68 -108.5t24.5 -138q0 -74 -25.5 -138.5t-70.5 -111.5t-106 -74t-132 -27t-132 27t-105.5 74.5t-70 112.5t-25.5 140q0 81 31.5 152t86.5 117q42 34 98.5 52t122.5 18zM367 606q-48 0 -88.5 -20.5t-70.5 -56.5t-47 -85.5t-17 -107.5
q0 -59 17 -109.5t46 -88t69 -59t87 -21.5q54 0 103.5 29t79.5 80q20 32 30.5 76.5t10.5 94.5q0 61 -16 110.5t-44.5 84.5t-69.5 54t-90 19zM199 759q9 16 14 27t9.5 20.5t9 20t11.5 27.5q27 -26 45 -43t34.5 -32.5t36.5 -33.5t51 -45q-40 13 -65.5 21t-47 14t-43.5 11
t-55 13z" />
    <glyph glyph-name="oacute" unicode="&#xf3;" horiz-adv-x="732" 
d="M371 680q72 0 132 -25t103.5 -70.5t68 -108.5t24.5 -138q0 -74 -25.5 -138.5t-70.5 -111.5t-106 -74t-132 -27t-132 27t-105.5 74.5t-70 112.5t-25.5 140q0 81 31.5 152t86.5 117q42 34 98.5 52t122.5 18zM367 606q-48 0 -88.5 -20.5t-70.5 -56.5t-47 -85.5t-17 -107.5
q0 -59 17 -109.5t46 -88t69 -59t87 -21.5q54 0 103.5 29t79.5 80q20 32 30.5 76.5t10.5 94.5q0 61 -16 110.5t-44.5 84.5t-69.5 54t-90 19zM532 759q-33 -8 -55 -13t-43.5 -11t-47 -14t-65.5 -21q31 27 51 45t36.5 33.5t34.5 32.5t45 43q7 -17 11.5 -27.5t9 -20t9.5 -20.5
t14 -27z" />
    <glyph glyph-name="ocircumflex" unicode="&#xf4;" horiz-adv-x="732" 
d="M371 680q72 0 132 -25t103.5 -70.5t68 -108.5t24.5 -138q0 -74 -25.5 -138.5t-70.5 -111.5t-106 -74t-132 -27t-132 27t-105.5 74.5t-70 112.5t-25.5 140q0 81 31.5 152t86.5 117q42 34 98.5 52t122.5 18zM367 606q-48 0 -88.5 -20.5t-70.5 -56.5t-47 -85.5t-17 -107.5
q0 -59 17 -109.5t46 -88t69 -59t87 -21.5q54 0 103.5 29t79.5 80q20 32 30.5 76.5t10.5 94.5q0 61 -16 110.5t-44.5 84.5t-69.5 54t-90 19zM360 852l50 -40t39.5 -31t42 -32t58.5 -43q-34 9 -56 14.5t-41 10.5t-40 11t-53 15q-29 -9 -48.5 -15t-37.5 -11t-39 -10.5
t-54 -14.5q31 25 51.5 41.5t38.5 31t38 31t51 42.5z" />
    <glyph glyph-name="otilde" unicode="&#xf5;" horiz-adv-x="732" 
d="M371 680q72 0 132 -25t103.5 -70.5t68 -108.5t24.5 -138q0 -74 -25.5 -138.5t-70.5 -111.5t-106 -74t-132 -27t-132 27t-105.5 74.5t-70 112.5t-25.5 140q0 81 31.5 152t86.5 117q42 34 98.5 52t122.5 18zM367 606q-48 0 -88.5 -20.5t-70.5 -56.5t-47 -85.5t-17 -107.5
q0 -59 17 -109.5t46 -88t69 -59t87 -21.5q54 0 103.5 29t79.5 80q20 32 30.5 76.5t10.5 94.5q0 61 -16 110.5t-44.5 84.5t-69.5 54t-90 19zM543 866q-11 -30 -18.5 -50t-15.5 -31q-21 -35 -68 -35q-6 0 -12 0.5t-14.5 1t-20.5 2.5t-31 5q-26 4 -42.5 6t-27 3.5t-18 2
t-14.5 0.5q-19 0 -36 -6t-37 -20q11 27 18 44t13 27q8 14 24 22t34 8q10 0 27.5 -2.5l52.5 -7.5q17 -3 29 -4.5t21 -2.5t16.5 -1.5t15.5 -0.5q35 0 59.5 9t44.5 30z" />
    <glyph glyph-name="odieresis" unicode="&#xf6;" horiz-adv-x="732" 
d="M371 680q72 0 132 -25t103.5 -70.5t68 -108.5t24.5 -138q0 -74 -25.5 -138.5t-70.5 -111.5t-106 -74t-132 -27t-132 27t-105.5 74.5t-70 112.5t-25.5 140q0 81 31.5 152t86.5 117q42 34 98.5 52t122.5 18zM367 606q-48 0 -88.5 -20.5t-70.5 -56.5t-47 -85.5t-17 -107.5
q0 -59 17 -109.5t46 -88t69 -59t87 -21.5q54 0 103.5 29t79.5 80q20 32 30.5 76.5t10.5 94.5q0 61 -16 110.5t-44.5 84.5t-69.5 54t-90 19zM465 839q26 0 44 -19.5t18 -45.5t-18.5 -44t-44.5 -18t-45 18.5t-19 44.5t19.5 45t45.5 19zM270 839q26 0 44 -19.5t18 -45.5
t-18.5 -44t-44.5 -18t-45 18.5t-19 44.5t19.5 45t45.5 19z" />
    <glyph glyph-name="divide" unicode="&#xf7;" 
d="M37 289q3 31 3 48q0 15 -3 47q31 -3 55 -5t48.5 -3t53.5 -1.5t70 -0.5q42 0 71 0.5t53.5 1.5t48 3t55.5 5q-2 -16 -3 -27.5t-1 -19.5t1 -20t3 -28q-32 3 -55.5 5t-48 3t-53.5 1.5t-71 0.5q-41 0 -70 -0.5t-53.5 -1.5t-48.5 -3t-55 -5zM265 231q23 0 37 -14.5t14 -37.5
t-14.5 -37.5t-37.5 -14.5t-37.5 14t-14.5 36q0 25 14.5 39.5t38.5 14.5zM265 546q23 0 37 -14.5t14 -37.5t-14.5 -37.5t-37.5 -14.5t-37.5 14t-14.5 36q0 25 14.5 39.5t38.5 14.5z" />
    <glyph glyph-name="oslash" unicode="&#xf8;" horiz-adv-x="731" 
d="M73 -21l69 94q-110 105 -110 264q0 81 31.5 153.5t86.5 118.5q41 34 96.5 52t118.5 18q51 0 91.5 -10t87.5 -33l61 86l48 -36l-61 -86q52 -48 79 -115.5t27 -146.5q0 -75 -25.5 -139.5t-70.5 -112t-105.5 -74.5t-130.5 -27q-48 0 -87.5 11.5t-88.5 40.5l-66 -93zM493 565
q-30 22 -58 31t-63 9q-50 0 -92 -20t-72 -55.5t-47 -85t-17 -108.5q0 -104 53 -185zM238 105q32 -26 58.5 -37t61.5 -11q56 0 106.5 29t82.5 79q19 32 29.5 75t10.5 91q0 59 -11.5 102.5t-39.5 88.5z" />
    <glyph glyph-name="ugrave" unicode="&#xf9;" horiz-adv-x="689" 
d="M518 570q0 24 -2 39t-9 25.5t-19 17.5t-33 15h211q-21 -8 -33 -15t-19 -17.5t-9 -25.5t-2 -39v-306q0 -78 -15.5 -129t-49.5 -83q-32 -32 -86 -49t-124 -17q-65 0 -114 18t-79 53q-26 29 -38 77t-12 122v314q0 24 -2 39t-9 25.5t-19 17.5t-33 15h227q-21 -8 -33 -15
t-19 -17.5t-9 -25.5t-2 -39v-329q0 -55 8.5 -85t31.5 -51q20 -18 51.5 -28t69.5 -10q54 0 92 17.5t57 50.5q22 38 22 120v315zM177 759q9 16 14 27t9.5 20.5t9 20t11.5 27.5q27 -26 45 -43t34.5 -32.5t36.5 -33.5t51 -45q-40 13 -65.5 21t-47 14t-43.5 11t-55 13z" />
    <glyph glyph-name="uacute" unicode="&#xfa;" horiz-adv-x="689" 
d="M518 570q0 24 -2 39t-9 25.5t-19 17.5t-33 15h211q-21 -8 -33 -15t-19 -17.5t-9 -25.5t-2 -39v-306q0 -78 -15.5 -129t-49.5 -83q-32 -32 -86 -49t-124 -17q-65 0 -114 18t-79 53q-26 29 -38 77t-12 122v314q0 24 -2 39t-9 25.5t-19 17.5t-33 15h227q-21 -8 -33 -15
t-19 -17.5t-9 -25.5t-2 -39v-329q0 -55 8.5 -85t31.5 -51q20 -18 51.5 -28t69.5 -10q54 0 92 17.5t57 50.5q22 38 22 120v315zM510 759q-33 -8 -55 -13t-43.5 -11t-47 -14t-65.5 -21q31 27 51 45t36.5 33.5t34.5 32.5t45 43q7 -17 11.5 -27.5t9 -20t9.5 -20.5t14 -27z" />
    <glyph glyph-name="ucircumflex" unicode="&#xfb;" horiz-adv-x="689" 
d="M518 570q0 24 -2 39t-9 25.5t-19 17.5t-33 15h211q-21 -8 -33 -15t-19 -17.5t-9 -25.5t-2 -39v-306q0 -78 -15.5 -129t-49.5 -83q-32 -32 -86 -49t-124 -17q-65 0 -114 18t-79 53q-26 29 -38 77t-12 122v314q0 24 -2 39t-9 25.5t-19 17.5t-33 15h227q-21 -8 -33 -15
t-19 -17.5t-9 -25.5t-2 -39v-329q0 -55 8.5 -85t31.5 -51q20 -18 51.5 -28t69.5 -10q54 0 92 17.5t57 50.5q22 38 22 120v315zM338 852l50 -40t39.5 -31t42 -32t58.5 -43q-34 9 -56 14.5t-41 10.5t-40 11t-53 15q-29 -9 -48.5 -15t-37.5 -11t-39 -10.5t-54 -14.5
q31 25 51.5 41.5t38.5 31t38 31t51 42.5z" />
    <glyph glyph-name="udieresis" unicode="&#xfc;" horiz-adv-x="689" 
d="M518 570q0 24 -2 39t-9 25.5t-19 17.5t-33 15h211q-21 -8 -33 -15t-19 -17.5t-9 -25.5t-2 -39v-306q0 -78 -15.5 -129t-49.5 -83q-32 -32 -86 -49t-124 -17q-65 0 -114 18t-79 53q-26 29 -38 77t-12 122v314q0 24 -2 39t-9 25.5t-19 17.5t-33 15h227q-21 -8 -33 -15
t-19 -17.5t-9 -25.5t-2 -39v-329q0 -55 8.5 -85t31.5 -51q20 -18 51.5 -28t69.5 -10q54 0 92 17.5t57 50.5q22 38 22 120v315zM443 839q26 0 44 -19.5t18 -45.5t-18.5 -44t-44.5 -18t-45 18.5t-19 44.5t19.5 45t45.5 19zM248 839q26 0 44 -19.5t18 -45.5t-18.5 -44
t-44.5 -18t-45 18.5t-19 44.5t19.5 45t45.5 19z" />
    <glyph glyph-name="yacute" unicode="&#xfd;" horiz-adv-x="623" 
d="M200 0q21 8 33 15t19 17.5t9 25.5t2 39v198l-177 275q-20 31 -31.5 48.5t-22 27t-22 13.5t-30.5 8h235q-37 -13 -37 -38q0 -8 3.5 -17t13.5 -25l131 -209l136 224q5 8 7.5 15.5t2.5 13.5q0 24 -38 36h209q-19 -6 -31.5 -11.5t-23 -14.5t-21 -24t-25.5 -39l-175 -283v-198
q0 -24 2 -39t9 -25.5t19 -17.5t33 -15h-230zM484 759q-33 -8 -55 -13t-43.5 -11t-47 -14t-65.5 -21q31 27 51 45t36.5 33.5t34.5 32.5t45 43q7 -17 11.5 -27.5t9 -20t9.5 -20.5t14 -27z" />
    <glyph glyph-name="thorn" unicode="&#xfe;" horiz-adv-x="533" 
d="M35 0q21 8 33 15t19 17.5t9 25.5t2 39v473q0 24 -2 39t-9 25.5t-19 17.5t-33 15h224q-21 -8 -33 -15t-19 -17.5t-9 -25.5t-2 -39v-37h90q64 0 104 -12.5t67 -41.5q49 -51 49 -125q0 -40 -15.5 -75t-42 -61.5t-62.5 -41.5t-77 -15q-33 0 -56 9.5t-45 32.5q31 -9 50 -9
q25 0 50 12.5t44 33t31 47t12 53.5q0 29 -15 56t-40 44q-35 22 -97 22h-47v-365q0 -24 2 -39t9 -25.5t19 -17.5t33 -15h-224z" />
    <glyph glyph-name="ydieresis" unicode="&#xff;" horiz-adv-x="623" 
d="M200 0q21 8 33 15t19 17.5t9 25.5t2 39v198l-177 275q-20 31 -31.5 48.5t-22 27t-22 13.5t-30.5 8h235q-37 -13 -37 -38q0 -8 3.5 -17t13.5 -25l131 -209l136 224q5 8 7.5 15.5t2.5 13.5q0 24 -38 36h209q-19 -6 -31.5 -11.5t-23 -14.5t-21 -24t-25.5 -39l-175 -283v-198
q0 -24 2 -39t9 -25.5t19 -17.5t33 -15h-230zM417 839q26 0 44 -19.5t18 -45.5t-18.5 -44t-44.5 -18t-45 18.5t-19 44.5t19.5 45t45.5 19zM222 839q26 0 44 -19.5t18 -45.5t-18.5 -44t-44.5 -18t-45 18.5t-19 44.5t19.5 45t45.5 19z" />
    <glyph glyph-name="dotlessi" unicode="&#x131;" horiz-adv-x="297" 
d="M35 0q21 8 33 15t19 17.5t9 25.5t2 39v473q0 24 -2 39t-9 25.5t-19 17.5t-33 15h225q-21 -8 -33 -15t-19 -17.5t-9 -25.5t-2 -39v-473q0 -24 2 -39t9 -25.5t19 -17.5t33 -15h-225z" />
    <glyph glyph-name="OE" unicode="&#x152;" horiz-adv-x="847" 
d="M527 0h-11t-17.5 -1t-30.5 -2t-49 -2q-17 -1 -32.5 -1.5t-27.5 -0.5q-69 0 -128.5 26.5t-104 73t-69.5 109.5t-25 136q0 81 31 153t86 117q42 35 96.5 53t116.5 18h16t15 -1t22.5 -2t38.5 -4q19 -2 47.5 -3.5t51.5 -1.5h183q23 0 37 7t26 27v-184q-18 48 -43.5 66
t-76.5 18h-135v-208h120q48 0 70.5 12t36.5 45v-193q-6 17 -12 25t-15 15q-7 5 -12.5 8t-13 4.5t-20 2t-32.5 0.5h-122v-165q0 -39 11.5 -53.5t43.5 -14.5h91q57 0 89 23.5t54 81.5q-5 -36 -8 -59t-5 -41.5t-3 -37.5t-2 -46h-288zM447 590q-23 8 -39.5 11.5t-36.5 3.5
q-50 0 -91.5 -20.5t-71.5 -56.5t-47 -85.5t-17 -108.5t17 -109.5t46 -87.5t69 -58.5t87 -21.5q23 0 41 4.5t43 17.5v511z" />
    <glyph glyph-name="oe" unicode="&#x153;" horiz-adv-x="847" 
d="M527 0h-11t-17.5 -1t-30.5 -2t-49 -2q-17 -1 -32.5 -1.5t-27.5 -0.5q-69 0 -128.5 26.5t-104 73t-69.5 109.5t-25 136q0 81 31 153t86 117q42 35 96.5 53t116.5 18h16t15 -1t22.5 -2t38.5 -4q19 -2 47.5 -3.5t51.5 -1.5h183q23 0 37 7t26 27v-184q-18 48 -43.5 66
t-76.5 18h-135v-208h120q48 0 70.5 12t36.5 45v-193q-6 17 -12 25t-15 15q-7 5 -12.5 8t-13 4.5t-20 2t-32.5 0.5h-122v-165q0 -39 11.5 -53.5t43.5 -14.5h91q57 0 89 23.5t54 81.5q-5 -36 -8 -59t-5 -41.5t-3 -37.5t-2 -46h-288zM447 590q-23 8 -39.5 11.5t-36.5 3.5
q-50 0 -91.5 -20.5t-71.5 -56.5t-47 -85.5t-17 -108.5t17 -109.5t46 -87.5t69 -58.5t87 -21.5q23 0 41 4.5t43 17.5v511z" />
    <glyph glyph-name="Scaron" unicode="&#x160;" horiz-adv-x="448" 
d="M35 154q38 -42 78 -64t81 -22q23 0 44 8.5t36.5 23.5t25 34.5t9.5 41.5q0 69 -90 127l-68 44q-104 66 -104 167q0 36 14 66.5t39.5 52.5t60.5 34.5t77 12.5q11 0 18.5 -0.5t16.5 -2t23 -5t39 -10.5q12 -3 18 -3q13 0 29 16l7 -159q-12 23 -21 34t-21 22
q-23 19 -51.5 29.5t-58.5 10.5q-40 0 -67 -24.5t-27 -60.5q0 -26 14 -43.5t53 -43.5l83 -56q55 -37 84 -85t29 -105q0 -44 -17.5 -82t-47.5 -65.5t-71 -43.5t-89 -16q-16 0 -29.5 1t-29.5 4.5t-36.5 9.5t-50.5 15v137zM232 706l-50 40t-39.5 31t-42 32t-58.5 43
q34 -9 56 -14.5t41 -10.5t40 -11t53 -15q29 9 48.5 15t37.5 11t39 10.5t54 14.5q-32 -25 -52 -41t-38 -31t-38 -31.5t-51 -42.5z" />
    <glyph glyph-name="scaron" unicode="&#x161;" horiz-adv-x="448" 
d="M35 154q38 -42 78 -64t81 -22q23 0 44 8.5t36.5 23.5t25 34.5t9.5 41.5q0 69 -90 127l-68 44q-104 66 -104 167q0 36 14 66.5t39.5 52.5t60.5 34.5t77 12.5q11 0 18.5 -0.5t16.5 -2t23 -5t39 -10.5q12 -3 18 -3q13 0 29 16l7 -159q-12 23 -21 34t-21 22
q-23 19 -51.5 29.5t-58.5 10.5q-40 0 -67 -24.5t-27 -60.5q0 -26 14 -43.5t53 -43.5l83 -56q55 -37 84 -85t29 -105q0 -44 -17.5 -82t-47.5 -65.5t-71 -43.5t-89 -16q-16 0 -29.5 1t-29.5 4.5t-36.5 9.5t-50.5 15v137zM232 706l-50 40t-39.5 31t-42 32t-58.5 43
q34 -9 56 -14.5t41 -10.5t40 -11t53 -15q29 9 48.5 15t37.5 11t39 10.5t54 14.5q-32 -25 -52 -41t-38 -31t-38 -31.5t-51 -42.5z" />
    <glyph glyph-name="Ydieresis" unicode="&#x178;" horiz-adv-x="623" 
d="M200 0q21 8 33 15t19 17.5t9 25.5t2 39v198l-177 275q-20 31 -31.5 48.5t-22 27t-22 13.5t-30.5 8h235q-37 -13 -37 -38q0 -8 3.5 -17t13.5 -25l131 -209l136 224q5 8 7.5 15.5t2.5 13.5q0 24 -38 36h209q-19 -6 -31.5 -11.5t-23 -14.5t-21 -24t-25.5 -39l-175 -283v-198
q0 -24 2 -39t9 -25.5t19 -17.5t33 -15h-230zM417 839q26 0 44 -19.5t18 -45.5t-18.5 -44t-44.5 -18t-45 18.5t-19 44.5t19.5 45t45.5 19zM222 839q26 0 44 -19.5t18 -45.5t-18.5 -44t-44.5 -18t-45 18.5t-19 44.5t19.5 45t45.5 19z" />
    <glyph glyph-name="Zcaron" unicode="&#x17d;" horiz-adv-x="631" 
d="M431 594h-265q-56 0 -84.5 -21.5t-44.5 -76.5v198q10 -9 17 -14.5t14.5 -8.5t16.5 -3.5t24 -0.5h496l-421 -587h290q47 0 75 24t48 81v-212q-17 16 -34 21.5t-48 5.5h-508zM321 706l-50 40t-39.5 31t-42 32t-58.5 43q34 -9 56 -14.5t41 -10.5t40 -11t53 -15q29 9 48.5 15
t37.5 11t39 10.5t54 14.5q-32 -25 -52 -41t-38 -31t-38 -31.5t-51 -42.5z" />
    <glyph glyph-name="zcaron" unicode="&#x17e;" horiz-adv-x="631" 
d="M431 594h-265q-56 0 -84.5 -21.5t-44.5 -76.5v198q10 -9 17 -14.5t14.5 -8.5t16.5 -3.5t24 -0.5h496l-421 -587h290q47 0 75 24t48 81v-212q-17 16 -34 21.5t-48 5.5h-508zM321 706l-50 40t-39.5 31t-42 32t-58.5 43q34 -9 56 -14.5t41 -10.5t40 -11t53 -15q29 9 48.5 15
t37.5 11t39 10.5t54 14.5q-32 -25 -52 -41t-38 -31t-38 -31.5t-51 -42.5z" />
    <glyph glyph-name="florin" unicode="&#x192;" horiz-adv-x="399" 
d="M-13 -50q17 -23 41 -23q10 0 18 5.5t14.5 18.5t12 35.5t11.5 57.5l75 424h-64l8 47h64l8 42q8 48 21 77.5t34 46.5q38 33 94 33q8 0 13 -0.5t10.5 -2t14 -5t23.5 -9.5q7 -3 13 -3q8 0 17 13l-18 -102q-6 20 -22 31.5t-37 11.5q-26 0 -40 -16.5t-21 -58.5l-10 -58h91
l-8 -47h-92l-70 -402q-11 -63 -22 -96t-28 -57q-17 -23 -43.5 -37.5t-53.5 -14.5q-38 0 -66 22z" />
    <glyph glyph-name="circumflex" unicode="&#x2c6;" horiz-adv-x="500" 
d="M244 852l50 -40t39.5 -31t42 -32t58.5 -43q-34 9 -56 14.5t-41 10.5t-40 11t-53 15q-29 -9 -48.5 -15t-37.5 -11t-39 -10.5t-54 -14.5q31 25 51.5 41.5t38.5 31t38 31t51 42.5z" />
    <glyph glyph-name="caron" unicode="&#x2c7;" horiz-adv-x="500" 
d="M256 706l-50 40t-39.5 31t-42 32t-58.5 43q34 -9 56 -14.5t41 -10.5t40 -11t53 -15q29 9 48.5 15t37.5 11t39 10.5t54 14.5q-32 -25 -52 -41t-38 -31t-38 -31.5t-51 -42.5z" />
    <glyph glyph-name="tilde" unicode="&#x2dc;" horiz-adv-x="500" 
d="M427 866q-11 -30 -18.5 -50t-15.5 -31q-21 -35 -68 -35q-6 0 -12 0.5t-14.5 1t-20.5 2.5t-31 5q-26 4 -42.5 6t-27 3.5t-18 2t-14.5 0.5q-19 0 -36 -6t-37 -20q11 27 18 44t13 27q8 14 24 22t34 8q10 0 27.5 -2.5l52.5 -7.5q17 -3 29 -4.5t21 -2.5t16.5 -1.5t15.5 -0.5
q35 0 59.5 9t44.5 30z" />
    <glyph glyph-name="uni03BC" unicode="&#x3bc;" horiz-adv-x="568" 
d="M73 496h92v-306q0 -42 6 -64t21 -37q29 -29 85 -29q60 0 88 32t28 101v303h91v-399q0 -24 2 -39.5t9 -25.5t19 -17.5t33 -14.5h-154v47q-47 -57 -138 -57q-59 0 -105 26l30 -186h-107v666z" />
    <glyph glyph-name="endash" unicode="&#x2013;" 
d="M492 398q-2 -20 -3.5 -34t-1.5 -24t1.5 -24t3.5 -34q-32 6 -55.5 9.5t-48 6t-53.5 3t-71 0.5q-41 0 -70 -0.5t-53.5 -3t-48.5 -6t-55 -9.5q2 20 3 34t1 24t-1 24t-3 34q34 -6 58.5 -9.5t48.5 -5.5t51.5 -2.5t68.5 -0.5t69 0.5t52 2.5t48.5 5.5t58.5 9.5z" />
    <glyph glyph-name="emdash" unicode="&#x2014;" horiz-adv-x="1000" 
d="M1000 398q-4 -20 -5.5 -34t-1.5 -24t1.5 -24t5.5 -34q-42 6 -74.5 9.5t-65.5 6t-71 3t-91 0.5h-384q-57 0 -97 -0.5t-73.5 -3t-67 -6t-76.5 -9.5q6 39 6 58t-6 58q47 -6 81 -9.5t67 -5.5t71.5 -2.5t94.5 -0.5h383q53 0 89.5 0.5t69 2.5t65.5 5.5t79 9.5z" />
    <glyph glyph-name="quoteleft" unicode="&#x2018;" horiz-adv-x="178" 
d="M104 604q46 -6 46 -47q0 -22 -15.5 -37.5t-36.5 -15.5q-24 0 -38.5 17t-14.5 44q0 23 9.5 46t26.5 39q12 12 26 18.5t39 11.5q-10 -11 -16.5 -19.5t-11 -17t-8 -18t-6.5 -21.5z" />
    <glyph glyph-name="quoteright" unicode="&#x2019;" horiz-adv-x="178" 
d="M90 580q-45 6 -45 47q0 22 15.5 37.5t36.5 15.5q24 0 38.5 -17t14.5 -44q0 -24 -9.5 -46t-26.5 -39q-13 -12 -26.5 -18.5t-39.5 -11.5q20 22 28.5 36.5t13.5 39.5z" />
    <glyph glyph-name="quotesinglbase" unicode="&#x201a;" horiz-adv-x="178" 
d="M90 0q-45 6 -45 48q0 22 15.5 37.5t36.5 15.5q24 0 38.5 -17t14.5 -44q0 -24 -9.5 -46.5t-26.5 -38.5q-13 -12 -26.5 -18.5t-39.5 -12.5q20 22 28.5 37t13.5 39z" />
    <glyph glyph-name="quotedblleft" unicode="&#x201c;" horiz-adv-x="345" 
d="M263 604q46 -6 46 -47q0 -22 -15.5 -37.5t-36.5 -15.5q-23 0 -37.5 17t-14.5 44q0 23 9.5 46t26.5 39q12 12 25.5 18.5t39.5 11.5q-20 -22 -28.5 -36.5t-14.5 -39.5zM91 604q46 -6 46 -47q0 -22 -15.5 -37.5t-36.5 -15.5q-24 0 -38.5 17t-14.5 44q0 23 9.5 46t26.5 39
q12 12 26 18.5t39 11.5q-10 -11 -16.5 -19.5t-11 -17t-8 -18t-6.5 -21.5z" />
    <glyph glyph-name="quotedblright" unicode="&#x201d;" horiz-adv-x="345" 
d="M77 580q-45 6 -45 47q0 22 15.5 37.5t36.5 15.5q24 0 38.5 -17t14.5 -44q0 -24 -9.5 -46t-26.5 -39q-13 -12 -26.5 -18.5t-39.5 -11.5q20 22 28.5 36.5t13.5 39.5zM250 580q-45 6 -45 47q0 22 15.5 37.5t36.5 15.5q23 0 37.5 -17t14.5 -44q0 -24 -9.5 -46t-26.5 -39
q-13 -12 -26.5 -18.5t-39.5 -11.5q20 22 28.5 36.5t14.5 39.5z" />
    <glyph glyph-name="quotedblbase" unicode="&#x201e;" horiz-adv-x="345" 
d="M77 0q-45 6 -45 48q0 22 15.5 37.5t36.5 15.5q24 0 38.5 -17t14.5 -44q0 -24 -9.5 -46.5t-26.5 -38.5q-13 -12 -26.5 -18.5t-39.5 -12.5q20 22 28.5 37t13.5 39zM250 0q-45 6 -45 48q0 22 15.5 37.5t36.5 15.5q23 0 37.5 -17t14.5 -44q0 -24 -9.5 -46.5t-26.5 -38.5
q-13 -12 -26.5 -18.5t-39.5 -12.5q20 22 28.5 37t14.5 39z" />
    <glyph glyph-name="dagger" unicode="&#x2020;" 
d="M162 -80q17 7 27.5 14.5t16 17.5t7.5 25.5t2 39.5v436h-53q-20 0 -32 -0.5t-20 -1.5t-13.5 -4t-12.5 -7q-9 -5 -14.5 -12.5t-12.5 -21.5v177q15 -28 38 -38.5t69 -10.5h51v109q0 24 -2 39.5t-7.5 25.5t-16 17t-27.5 15h205q-17 -8 -27.5 -15t-16 -17t-7.5 -25.5t-2 -39.5
v-109h51q46 0 69 10.5t38 38.5v-177q-7 14 -12.5 21.5t-14.5 12.5q-7 4 -12.5 7t-13.5 4t-20 1.5t-32 0.5h-53v-436q0 -24 2 -39.5t7.5 -25.5t16 -17.5t27.5 -14.5h-205z" />
    <glyph glyph-name="daggerdbl" unicode="&#x2021;" 
d="M162 -80q17 7 27.5 14.5t16 17.5t7.5 25.5t2 39.5v122h-51q-46 0 -69 -10.5t-38 -38.5v177q7 -14 12.5 -21.5t14.5 -12.5q7 -5 12.5 -7.5t13.5 -3.5t20 -1.5t32 -0.5h53v233h-53q-20 0 -32 -0.5t-20 -1.5t-13.5 -4t-12.5 -7q-9 -5 -14.5 -12.5t-12.5 -21.5v177
q15 -28 38 -38.5t69 -10.5h51v109q0 24 -2 39.5t-7.5 25.5t-16 17t-27.5 15h205q-17 -8 -27.5 -15t-16 -17t-7.5 -25.5t-2 -39.5v-109h51q46 0 69 10.5t38 38.5v-177q-7 14 -12.5 21.5t-14.5 12.5q-7 4 -12.5 7t-13.5 4t-20 1.5t-32 0.5h-53v-233h53q20 0 32 0.5t20 1.5
t13.5 3.5t12.5 7.5q9 5 14.5 12.5t12.5 21.5v-177q-15 28 -38 38.5t-69 10.5h-51v-122q0 -24 2 -39.5t7.5 -25.5t16 -17.5t27.5 -14.5h-205z" />
    <glyph glyph-name="bullet" unicode="&#x2022;" horiz-adv-x="667" 
d="M336 477q28 0 53 -11t43.5 -30t29.5 -44.5t11 -53.5q0 -29 -11 -54t-29.5 -43.5t-44 -29.5t-53.5 -11q-29 0 -54.5 11t-44 29.5t-29.5 43.5t-11 54t11 54.5t30 44t44.5 29.5t54.5 11z" />
    <glyph glyph-name="ellipsis" unicode="&#x2026;" horiz-adv-x="552" 
d="M93 97q23 0 37 -14.5t14 -37.5t-14.5 -37.5t-37.5 -14.5t-37.5 14t-14.5 36q0 25 14.5 39.5t38.5 14.5zM277 97q23 0 37 -14.5t14 -37.5t-14.5 -37.5t-37.5 -14.5t-37.5 14t-14.5 36q0 25 14.5 39.5t38.5 14.5zM461 97q23 0 37 -14.5t14 -37.5t-14.5 -37.5t-37.5 -14.5
t-37.5 14t-14.5 36q0 25 14.5 39.5t38.5 14.5z" />
    <glyph glyph-name="perthousand" unicode="&#x2030;" horiz-adv-x="1337" 
d="M215 684q37 0 68 -17t54 -46.5t36 -70.5t13 -89q0 -50 -13 -91.5t-36 -71t-55 -46t-71 -16.5q-38 0 -70 16.5t-55 46t-36 70t-13 88.5q0 50 13 92t36.5 72t56.5 46.5t72 16.5zM210 634q-20 0 -37 -13.5t-29 -37t-19 -56t-7 -69.5q0 -35 7 -66t20 -54t29.5 -36t36.5 -13
t37.5 13.5t30 36.5t20 55t7.5 69t-7.5 68t-20 54t-30 36t-38.5 13zM722 435q37 0 68 -17t54 -46.5t36 -70.5t13 -89q0 -50 -13 -91.5t-36 -71t-55 -46t-71 -16.5q-38 0 -70 16.5t-55 46t-36 70t-13 88.5q0 50 13 92t36.5 72t56.5 46.5t72 16.5zM716 385q-20 0 -37 -13.5
t-29 -37t-19 -56t-7 -69.5q0 -35 7 -66t20 -54t29.5 -36t36.5 -13t37.5 13.5t30 36.5t20 55t7.5 69t-7.5 68t-20 54t-30 36t-38.5 13zM241 -65l393 824l55 -27l-393 -823zM1128 435q37 0 68.5 -17t54.5 -46.5t36 -70.5t13 -89q0 -50 -13 -91.5t-36 -71t-55.5 -46
t-71.5 -16.5q-38 0 -70 16.5t-55 46t-36 70t-13 88.5q0 50 13 92t36.5 72t56.5 46.5t72 16.5zM1122 385q-20 0 -36.5 -13.5t-29 -37t-19.5 -56t-7 -69.5q0 -35 7.5 -66t20 -54t29.5 -36t37 -13t37.5 13.5t30 36.5t20 55t7.5 69t-7.5 68t-20 54t-30.5 36t-39 13z" />
    <glyph glyph-name="guilsinglleft" unicode="&#x2039;" horiz-adv-x="206" 
d="M25 334q31 13 51 23t36 21t32 26t40 40q5 -14 7 -23t2 -17q0 -18 -5.5 -34.5t-18.5 -35.5q13 -19 18.5 -35.5t5.5 -34.5q0 -8 -2 -17t-7 -23q-24 25 -40 40.5t-32 26.5t-36 20.5t-51 22.5z" />
    <glyph glyph-name="guilsinglright" unicode="&#x203a;" horiz-adv-x="206" 
d="M191 334q-31 -13 -51 -22.5t-36 -20.5t-32 -26.5t-40 -40.5q-5 14 -6.5 23t-1.5 17q0 19 5.5 35t18.5 35q-13 20 -18.5 36t-5.5 35q0 8 1.5 16.5t6.5 22.5q24 -25 40 -40t32 -26t36 -21t51 -23z" />
    <glyph glyph-name="Euro" unicode="&#x20ac;" horiz-adv-x="601" 
d="M580 29q-32 -12 -57 -19.5t-46.5 -12t-41.5 -6.5t-43 -2q-54 0 -104 20t-91.5 55t-71.5 84t-43 108h-85v47h77q-1 8 -1 16.5v17.5v19.5t2 19.5h-78v47h86q14 57 42.5 105t69 82t90.5 53t107 19q29 0 60 -3t69 -10q5 -1 10.5 -1.5t9.5 -0.5q10 0 16.5 4.5t14.5 17.5v-160
q-29 47 -71 67.5t-93 20.5q-83 0 -139 -51.5t-75 -140.5h278v-47h-284q-1 -8 -1 -17v-17v-20.5t1 -18.5h254v-47h-247q19 -89 73.5 -138.5t138.5 -49.5q54 0 104 25t80 73z" />
    <glyph glyph-name="trademark" unicode="&#x2122;" horiz-adv-x="855" 
d="M114 287q12 5 19.5 9t11.5 10t5 15t1 24v275h-57q-35 0 -51.5 -9.5t-25.5 -34.5v109q9 -6 14.5 -10t11 -5.5t12.5 -2t18 -0.5h223q23 0 32.5 3.5t23.5 15.5v-110q-11 23 -28 33.5t-47 10.5h-61v-275q0 -29 6.5 -39t30.5 -19h-139zM479 552l-11 -195v-18q0 -23 5 -32.5
t22 -19.5h-114q22 10 29 23t9 42l14 248v12q0 25 -10 35t-42 20h113l117 -262l120 262h106q-29 -11 -38 -24t-7 -45l10 -228q1 -21 3 -35t6.5 -23t12.5 -14.5t21 -10.5h-133q10 5 15.5 9.5t8.5 11t4 16t1 25.5v14l-11 195l-127 -285z" />
    <glyph glyph-name="uniE300" unicode="&#xe300;" horiz-adv-x="500" 
d="M83 759q9 16 14 27t9.5 20.5t9 20t11.5 27.5q27 -26 45 -43t34.5 -32.5t36.5 -33.5t51 -45q-40 13 -65.5 21t-47 14t-43.5 11t-55 13z" />
    <glyph glyph-name="uniE301" unicode="&#xe301;" horiz-adv-x="500" 
d="M416 759q-33 -8 -55 -13t-43.5 -11t-47 -14t-65.5 -21q31 27 51 45t36.5 33.5t34.5 32.5t45 43q7 -17 11.5 -27.5t9 -20t9.5 -20.5t14 -27z" />
    <glyph glyph-name="uniE302" unicode="&#xe302;" horiz-adv-x="500" 
d="M244 852l50 -40t39.5 -31t42 -32t58.5 -43q-34 9 -56 14.5t-41 10.5t-40 11t-53 15q-29 -9 -48.5 -15t-37.5 -11t-39 -10.5t-54 -14.5q31 25 51.5 41.5t38.5 31t38 31t51 42.5z" />
    <glyph glyph-name="uniE303" unicode="&#xe303;" horiz-adv-x="500" 
d="M256 706l-50 40t-39.5 31t-42 32t-58.5 43q34 -9 56 -14.5t41 -10.5t40 -11t53 -15q29 9 48.5 15t37.5 11t39 10.5t54 14.5q-32 -25 -52 -41t-38 -31t-38 -31.5t-51 -42.5z" />
    <glyph glyph-name="uniE304" unicode="&#xe304;" horiz-adv-x="500" 
d="M427 866q-11 -30 -18.5 -50t-15.5 -31q-21 -35 -68 -35q-6 0 -12 0.5t-14.5 1t-20.5 2.5t-31 5q-26 4 -42.5 6t-27 3.5t-18 2t-14.5 0.5q-19 0 -36 -6t-37 -20q11 27 18 44t13 27q8 14 24 22t34 8q10 0 27.5 -2.5l52.5 -7.5q17 -3 29 -4.5t21 -2.5t16.5 -1.5t15.5 -0.5
q35 0 59.5 9t44.5 30z" />
    <glyph glyph-name="uniE305" unicode="&#xe305;" horiz-adv-x="500" 
d="M349 839q26 0 44 -19.5t18 -45.5t-18.5 -44t-44.5 -18t-45 18.5t-19 44.5t19.5 45t45.5 19zM154 839q26 0 44 -19.5t18 -45.5t-18.5 -44t-44.5 -18t-45 18.5t-19 44.5t19.5 45t45.5 19z" />
    <glyph glyph-name="glyph229" horiz-adv-x="0" 
 />
    <glyph glyph-name="glyph233" horiz-adv-x="0" 
 />
    </font>
</defs>
</svg>
